<svg xmlns="http://www.w3.org/2000/svg" xmlns:xlink="http://www.w3.org/1999/xlink" xmlns:lucid="lucid" width="1120" height="1171"><g transform="translate(-100 -209)" lucid:page-tab-id="0_0"><path d="M120 346c0-3.3 2.7-6 6-6h1068c3.3 0 6 2.7 6 6v108c0 3.3-2.7 6-6 6H126c-3.3 0-6-2.7-6-6z" fill="#83bbe5"/><path d="M140 286c0-3.3 2.7-6 6-6h48c3.3 0 6 2.7 6 6v228c0 3.3-2.7 6-6 6h-48c-3.3 0-6-2.7-6-6z" stroke="#5e5e5e" stroke-width="4" fill="#ffdf71" fill-opacity=".68"/><path d="M364.4 241H161.03v-2h203.4zm777.1 0H745.8v-2h395.7z" fill="#5e5e5e"/><path d="M161.04 241H160v-2h1.04zM1156.76 240l-14.26 4.64v-9.28z" fill="#5e5e5e"/><path d="M1160 240l-18.5 6v-12zm-16.5 3.26l10.03-3.26-10.03-3.26z" fill="#5e5e5e"/><use xlink:href="#a" transform="matrix(1,0,0,1,364.41288796222483,227.77777777777777) translate(0 19.55078125)"/><use xlink:href="#b" transform="matrix(1,0,0,1,364.41288796222483,227.77777777777777) translate(73.34526909722221 19.55078125)"/><use xlink:href="#c" transform="matrix(1,0,0,1,364.41288796222483,227.77777777777777) translate(205.36675347222223 19.55078125)"/><use xlink:href="#d" transform="matrix(1,0,0,1,364.41288796222483,227.77777777777777) translate(278.71202256944446 19.55078125)"/><use xlink:href="#e" transform="matrix(1,0,0,1,364.41288796222483,227.77777777777777) translate(337.38823784722223 19.55078125)"/><path d="M120 626c0-3.3 2.7-6 6-6h1068c3.3 0 6 2.7 6 6v108c0 3.3-2.7 6-6 6H126c-3.3 0-6-2.7-6-6z" fill="#83bbe5"/><path d="M140 566c0-3.3 2.7-6 6-6h208c3.3 0 6 2.7 6 6v228c0 3.3-2.7 6-6 6H146c-3.3 0-6-2.7-6-6z" stroke="#5e5e5e" stroke-width="4" fill="#ffdf71" fill-opacity=".68"/><path d="M120 906c0-3.3 2.7-6 6-6h1068c3.3 0 6 2.7 6 6v108c0 3.3-2.7 6-6 6H126c-3.3 0-6-2.7-6-6z" fill="#83bbe5"/><path d="M140 846c0-3.3 2.7-6 6-6h548c3.3 0 6 2.7 6 6v228c0 3.3-2.7 6-6 6H146c-3.3 0-6-2.7-6-6z" stroke="#5e5e5e" stroke-width="4" fill="#ffdf71" fill-opacity=".68"/><path d="M120 1186c0-3.3 2.7-6 6-6h1068c3.3 0 6 2.7 6 6v108c0 3.3-2.7 6-6 6H126c-3.3 0-6-2.7-6-6z" fill="#83bbe5"/><path d="M140 1126c0-3.3 2.7-6 6-6h1028c3.3 0 6 2.7 6 6v228c0 3.3-2.7 6-6 6H146c-3.3 0-6-2.7-6-6z" stroke="#5e5e5e" stroke-width="4" fill="#ffdf71" fill-opacity=".68"/><defs><path fill="#333" d="M1003 0L516-638 353-469V0H162v-1349h191v673l572-673h225L646-777 1227 0h-224" id="f"/><path fill="#333" d="M617-1102c355 0 481 238 477 599H322c5 222 84 388 301 388 144 0 244-59 284-166l158 45C1002-72 854 20 623 20c-342 0-490-220-490-568 0-346 151-554 484-554zm291 461c-18-192-90-328-289-328-194 0-287 128-295 328h584" id="g"/><path fill="#333" d="M698-1104c312 3 392 244 392 558 0 315-82 566-392 566-169 0-277-65-331-184h-5c8 188 2 394 4 589H185V-858c0-76-1-156-6-224h175c6 52 9 120 10 178h4c58-122 150-202 330-200zm-49 991c225 0 255-203 255-433 0-225-32-419-253-419-236 0-285 192-285 441 0 237 53 411 283 411" id="h"/><g id="a"><use transform="matrix(0.011935763888888888,0,0,0.011935763888888888,0,0)" xlink:href="#f"/><use transform="matrix(0.011935763888888888,0,0,0.011935763888888888,14.669053819444443,0)" xlink:href="#g"/><use transform="matrix(0.011935763888888888,0,0,0.011935763888888888,29.338107638888886,0)" xlink:href="#g"/><use transform="matrix(0.011935763888888888,0,0,0.011935763888888888,44.00716145833333,0)" xlink:href="#h"/></g><path fill="#333" d="M1121-976c0 225-142 341-344 379L1177 0H957L591-575H353V0H162v-1349h482c281 3 477 100 477 373zM633-726c181-1 296-73 296-247 0-149-101-223-304-223H353v470h280" id="i"/><path fill="#333" d="M873-819c-18-114-119-146-250-146-163 0-245 50-245 151 0 151 170 148 294 185 182 54 388 94 388 320 0 240-189 325-439 329-245 4-410-69-454-268l159-31c24 133 136 168 295 165 144-2 270-31 270-171 0-164-195-160-331-202-167-52-350-87-350-299 0-218 173-315 413-313 220 2 373 77 412 260" id="j"/><path fill="#333" d="M745-142h380V0H143v-142h422v-798H246v-142h499v940zM545-1292v-192h200v192H545" id="k"/><path fill="#333" d="M147 0v-137l681-806H187v-139h844v137L349-139h719V0H147" id="l"/><path fill="#333" d="M706-1102c241 0 344 136 343 381V0H868v-695c1-168-57-273-220-268-190 6-283 138-283 336V0H185c-3-360 6-732-6-1082h170c4 54 7 126 8 185h3c63-121 164-204 346-205" id="m"/><path fill="#333" d="M1048-32c-2 300-135 456-433 456-222-1-358-88-400-267l184-25c22 99 100 157 222 156 184-2 248-125 248-315 0-64 3-133-2-194C807-100 706-13 524-12c-306 0-381-228-381-537 0-318 85-550 400-550 164 0 271 83 325 202h3c1-60 3-134 12-185h171c-13 339-4 702-6 1050zM585-145c210-8 284-178 284-406 0-192-52-331-177-392-33-16-69-22-104-22-223 2-259 184-259 414 0 229 31 415 256 406" id="n"/><g id="b"><use transform="matrix(0.011935763888888888,0,0,0.011935763888888888,0,0)" xlink:href="#i"/><use transform="matrix(0.011935763888888888,0,0,0.011935763888888888,14.669053819444443,0)" xlink:href="#g"/><use transform="matrix(0.011935763888888888,0,0,0.011935763888888888,29.338107638888886,0)" xlink:href="#j"/><use transform="matrix(0.011935763888888888,0,0,0.011935763888888888,44.00716145833333,0)" xlink:href="#k"/><use transform="matrix(0.011935763888888888,0,0,0.011935763888888888,58.67621527777777,0)" xlink:href="#l"/><use transform="matrix(0.011935763888888888,0,0,0.011935763888888888,73.34526909722221,0)" xlink:href="#k"/><use transform="matrix(0.011935763888888888,0,0,0.011935763888888888,88.01432291666666,0)" xlink:href="#m"/><use transform="matrix(0.011935763888888888,0,0,0.011935763888888888,102.6833767361111,0)" xlink:href="#n"/></g><path fill="#333" d="M682 16c-209 0-323-80-324-285v-671H190v-142h170l58-282h120v282h432v142H538v652c2 114 60 155 182 155 106 0 209-16 297-34v137C921-4 806 16 682 16" id="o"/><path fill="#333" d="M736-142h380V0H134v-142h422v-1200H267v-142h469v1342" id="p"/><g id="c"><use transform="matrix(0.011935763888888888,0,0,0.011935763888888888,0,0)" xlink:href="#o"/><use transform="matrix(0.011935763888888888,0,0,0.011935763888888888,14.669053819444443,0)" xlink:href="#k"/><use transform="matrix(0.011935763888888888,0,0,0.011935763888888888,29.338107638888886,0)" xlink:href="#p"/><use transform="matrix(0.011935763888888888,0,0,0.011935763888888888,44.00716145833333,0)" xlink:href="#p"/></g><path fill="#333" d="M648-963c-190 6-283 138-283 336V0H185v-1484h181c-2 197 6 404-9 587h3c62-120 159-205 339-205 242 0 351 135 350 381V0H868v-695c1-168-57-273-220-268" id="q"/><g id="d"><use transform="matrix(0.011935763888888888,0,0,0.011935763888888888,0,0)" xlink:href="#o"/><use transform="matrix(0.011935763888888888,0,0,0.011935763888888888,14.669053819444443,0)" xlink:href="#q"/><use transform="matrix(0.011935763888888888,0,0,0.011935763888888888,29.338107638888886,0)" xlink:href="#g"/></g><path fill="#333" d="M162 0v-1349h919v156H353v422h668v154H353v461h769V0H162" id="r"/><path fill="#333" d="M865-914c-3-187-2-380-2-570h180v1261c0 76 1 155 6 223H877c-8-49-9-116-10-174h-5C801-44 708 26 530 26c-135 0-234-46-297-139s-95-232-95-419c0-377 131-566 392-566 176 0 271 63 335 184zm-286-51c-222 0-255 197-255 427 0 229 31 425 253 425 237 0 286-195 286-441 0-238-52-411-284-411" id="s"/><g id="e"><use transform="matrix(0.011935763888888888,0,0,0.011935763888888888,0,0)" xlink:href="#r"/><use transform="matrix(0.011935763888888888,0,0,0.011935763888888888,14.669053819444443,0)" xlink:href="#m"/><use transform="matrix(0.011935763888888888,0,0,0.011935763888888888,29.338107638888886,0)" xlink:href="#s"/></g></defs></g></svg>