<svg xmlns="http://www.w3.org/2000/svg" xmlns:xlink="http://www.w3.org/1999/xlink" xmlns:lucid="lucid" width="1120" height="1171"><g transform="translate(-100 -209)" lucid:page-tab-id="0_0"><path d="M120 346c0-3.3 2.7-6 6-6h1068c3.3 0 6 2.7 6 6v108c0 3.3-2.7 6-6 6H126c-3.3 0-6-2.7-6-6z" fill="#83bbe5"/><path d="M140 286c0-3.3 2.7-6 6-6h48c3.3 0 6 2.7 6 6v228c0 3.3-2.7 6-6 6h-48c-3.3 0-6-2.7-6-6z" stroke="#5e5e5e" stroke-width="4" fill="#ffdf71" fill-opacity=".68"/><path d="M343.95 241H151v-2h192.95zm807.54 0h-44.76v-2h44.75z" fill="#5e5e5e"/><path d="M151.03 241H150v-2h1.03zM1166.76 240l-14.27 4.64v-9.28z" fill="#5e5e5e"/><path d="M1170 240l-18.5 6v-12zm-16.5 3.26l10.02-3.26-10.03-3.26z" fill="#5e5e5e"/><use xlink:href="#a" transform="matrix(1,0,0,1,343.95108349325034,227.77777777777777) translate(0 19.55078125)"/><use xlink:href="#b" transform="matrix(1,0,0,1,343.95108349325034,227.77777777777777) translate(73.34526909722221 19.55078125)"/><use xlink:href="#c" transform="matrix(1,0,0,1,343.95108349325034,227.77777777777777) translate(205.36675347222223 19.55078125)"/><use xlink:href="#d" transform="matrix(1,0,0,1,343.95108349325034,227.77777777777777) translate(278.71202256944446 19.55078125)"/><use xlink:href="#e" transform="matrix(1,0,0,1,343.95108349325034,227.77777777777777) translate(337.38823784722223 19.55078125)"/><use xlink:href="#f" transform="matrix(1,0,0,1,343.95108349325034,227.77777777777777) translate(484.0787760416667 19.55078125)"/><use xlink:href="#g" transform="matrix(1,0,0,1,343.95108349325034,227.77777777777777) translate(528.0859375 19.55078125)"/><use xlink:href="#h" transform="matrix(1,0,0,1,343.95108349325034,227.77777777777777) translate(601.4312065972222 19.55078125)"/><use xlink:href="#i" transform="matrix(1,0,0,1,343.95108349325034,227.77777777777777) translate(674.7764756944443 19.55078125)"/><path d="M120 626c0-3.3 2.7-6 6-6h1068c3.3 0 6 2.7 6 6v108c0 3.3-2.7 6-6 6H126c-3.3 0-6-2.7-6-6z" fill="#83bbe5"/><path d="M260 566c0-3.3 2.7-6 6-6h208c3.3 0 6 2.7 6 6v228c0 3.3-2.7 6-6 6H266c-3.3 0-6-2.7-6-6z" stroke="#5e5e5e" stroke-width="4" fill="#ffdf71" fill-opacity=".68"/><path d="M120 906c0-3.3 2.7-6 6-6h1068c3.3 0 6 2.7 6 6v108c0 3.3-2.7 6-6 6H126c-3.3 0-6-2.7-6-6z" fill="#83bbe5"/><path d="M440 846c0-3.3 2.7-6 6-6h548c3.3 0 6 2.7 6 6v228c0 3.3-2.7 6-6 6H446c-3.3 0-6-2.7-6-6z" stroke="#5e5e5e" stroke-width="4" fill="#ffdf71" fill-opacity=".68"/><path d="M120 1186c0-3.3 2.7-6 6-6h1068c3.3 0 6 2.7 6 6v108c0 3.3-2.7 6-6 6H126c-3.3 0-6-2.7-6-6z" fill="#83bbe5"/><path d="M1040 1126c0-3.3 2.7-6 6-6h128c3.3 0 6 2.7 6 6v228c0 3.3-2.7 6-6 6h-128c-3.3 0-6-2.7-6-6z" stroke="#5e5e5e" stroke-width="4" fill="#ffdf71" fill-opacity=".68"/><defs><path fill="#333" d="M1003 0L516-638 353-469V0H162v-1349h191v673l572-673h225L646-777 1227 0h-224" id="j"/><path fill="#333" d="M617-1102c355 0 481 238 477 599H322c5 222 84 388 301 388 144 0 244-59 284-166l158 45C1002-72 854 20 623 20c-342 0-490-220-490-568 0-346 151-554 484-554zm291 461c-18-192-90-328-289-328-194 0-287 128-295 328h584" id="k"/><path fill="#333" d="M698-1104c312 3 392 244 392 558 0 315-82 566-392 566-169 0-277-65-331-184h-5c8 188 2 394 4 589H185V-858c0-76-1-156-6-224h175c6 52 9 120 10 178h4c58-122 150-202 330-200zm-49 991c225 0 255-203 255-433 0-225-32-419-253-419-236 0-285 192-285 441 0 237 53 411 283 411" id="l"/><g id="a"><use transform="matrix(0.011935763888888888,0,0,0.011935763888888888,0,0)" xlink:href="#j"/><use transform="matrix(0.011935763888888888,0,0,0.011935763888888888,14.669053819444443,0)" xlink:href="#k"/><use transform="matrix(0.011935763888888888,0,0,0.011935763888888888,29.338107638888886,0)" xlink:href="#k"/><use transform="matrix(0.011935763888888888,0,0,0.011935763888888888,44.00716145833333,0)" xlink:href="#l"/></g><path fill="#333" d="M1121-976c0 225-142 341-344 379L1177 0H957L591-575H353V0H162v-1349h482c281 3 477 100 477 373zM633-726c181-1 296-73 296-247 0-149-101-223-304-223H353v470h280" id="m"/><path fill="#333" d="M873-819c-18-114-119-146-250-146-163 0-245 50-245 151 0 151 170 148 294 185 182 54 388 94 388 320 0 240-189 325-439 329-245 4-410-69-454-268l159-31c24 133 136 168 295 165 144-2 270-31 270-171 0-164-195-160-331-202-167-52-350-87-350-299 0-218 173-315 413-313 220 2 373 77 412 260" id="n"/><path fill="#333" d="M745-142h380V0H143v-142h422v-798H246v-142h499v940zM545-1292v-192h200v192H545" id="o"/><path fill="#333" d="M147 0v-137l681-806H187v-139h844v137L349-139h719V0H147" id="p"/><path fill="#333" d="M706-1102c241 0 344 136 343 381V0H868v-695c1-168-57-273-220-268-190 6-283 138-283 336V0H185c-3-360 6-732-6-1082h170c4 54 7 126 8 185h3c63-121 164-204 346-205" id="q"/><path fill="#333" d="M1048-32c-2 300-135 456-433 456-222-1-358-88-400-267l184-25c22 99 100 157 222 156 184-2 248-125 248-315 0-64 3-133-2-194C807-100 706-13 524-12c-306 0-381-228-381-537 0-318 85-550 400-550 164 0 271 83 325 202h3c1-60 3-134 12-185h171c-13 339-4 702-6 1050zM585-145c210-8 284-178 284-406 0-192-52-331-177-392-33-16-69-22-104-22-223 2-259 184-259 414 0 229 31 415 256 406" id="r"/><g id="b"><use transform="matrix(0.011935763888888888,0,0,0.011935763888888888,0,0)" xlink:href="#m"/><use transform="matrix(0.011935763888888888,0,0,0.011935763888888888,14.669053819444443,0)" xlink:href="#k"/><use transform="matrix(0.011935763888888888,0,0,0.011935763888888888,29.338107638888886,0)" xlink:href="#n"/><use transform="matrix(0.011935763888888888,0,0,0.011935763888888888,44.00716145833333,0)" xlink:href="#o"/><use transform="matrix(0.011935763888888888,0,0,0.011935763888888888,58.67621527777777,0)" xlink:href="#p"/><use transform="matrix(0.011935763888888888,0,0,0.011935763888888888,73.34526909722221,0)" xlink:href="#o"/><use transform="matrix(0.011935763888888888,0,0,0.011935763888888888,88.01432291666666,0)" xlink:href="#q"/><use transform="matrix(0.011935763888888888,0,0,0.011935763888888888,102.6833767361111,0)" xlink:href="#r"/></g><path fill="#333" d="M682 16c-209 0-323-80-324-285v-671H190v-142h170l58-282h120v282h432v142H538v652c2 114 60 155 182 155 106 0 209-16 297-34v137C921-4 806 16 682 16" id="s"/><path fill="#333" d="M736-142h380V0H134v-142h422v-1200H267v-142h469v1342" id="t"/><g id="c"><use transform="matrix(0.011935763888888888,0,0,0.011935763888888888,0,0)" xlink:href="#s"/><use transform="matrix(0.011935763888888888,0,0,0.011935763888888888,14.669053819444443,0)" xlink:href="#o"/><use transform="matrix(0.011935763888888888,0,0,0.011935763888888888,29.338107638888886,0)" xlink:href="#t"/><use transform="matrix(0.011935763888888888,0,0,0.011935763888888888,44.00716145833333,0)" xlink:href="#t"/></g><path fill="#333" d="M648-963c-190 6-283 138-283 336V0H185v-1484h181c-2 197 6 404-9 587h3c62-120 159-205 339-205 242 0 351 135 350 381V0H868v-695c1-168-57-273-220-268" id="u"/><g id="d"><use transform="matrix(0.011935763888888888,0,0,0.011935763888888888,0,0)" xlink:href="#s"/><use transform="matrix(0.011935763888888888,0,0,0.011935763888888888,14.669053819444443,0)" xlink:href="#u"/><use transform="matrix(0.011935763888888888,0,0,0.011935763888888888,29.338107638888886,0)" xlink:href="#k"/></g><path fill="#333" d="M650-1214c-281 0-336 244-336 533 0 295 60 546 347 546 188 0 263-142 322-282l159 65C1058-155 935 20 659 20c-401 0-546-295-546-701 0-407 135-689 536-689 264 0 391 146 466 335l-168 65c-47-129-127-244-297-244" id="v"/><path fill="#333" d="M615-1102c343 0 484 203 482 560-1 347-147 562-488 562-336 0-475-219-479-562-4-349 156-560 485-560zm-8 989c240 0 301-180 301-429 0-245-55-427-290-427-236 0-299 181-299 427 0 243 61 429 288 429" id="w"/><path fill="#333" d="M865-914c-3-187-2-380-2-570h180v1261c0 76 1 155 6 223H877c-8-49-9-116-10-174h-5C801-44 708 26 530 26c-135 0-234-46-297-139s-95-232-95-419c0-377 131-566 392-566 176 0 271 63 335 184zm-286-51c-222 0-255 197-255 427 0 229 31 425 253 425 237 0 286-195 286-441 0-238-52-411-284-411" id="x"/><g id="e"><use transform="matrix(0.011935763888888888,0,0,0.011935763888888888,0,0)" xlink:href="#v"/><use transform="matrix(0.011935763888888888,0,0,0.011935763888888888,14.669053819444443,0)" xlink:href="#w"/><use transform="matrix(0.011935763888888888,0,0,0.011935763888888888,29.338107638888886,0)" xlink:href="#q"/><use transform="matrix(0.011935763888888888,0,0,0.011935763888888888,44.00716145833333,0)" xlink:href="#x"/><use transform="matrix(0.011935763888888888,0,0,0.011935763888888888,58.67621527777777,0)" xlink:href="#o"/><use transform="matrix(0.011935763888888888,0,0,0.011935763888888888,73.34526909722221,0)" xlink:href="#s"/><use transform="matrix(0.011935763888888888,0,0,0.011935763888888888,88.01432291666666,0)" xlink:href="#o"/><use transform="matrix(0.011935763888888888,0,0,0.011935763888888888,102.6833767361111,0)" xlink:href="#w"/><use transform="matrix(0.011935763888888888,0,0,0.011935763888888888,117.35243055555554,0)" xlink:href="#q"/></g><g id="f"><use transform="matrix(0.011935763888888888,0,0,0.011935763888888888,0,0)" xlink:href="#o"/><use transform="matrix(0.011935763888888888,0,0,0.011935763888888888,14.669053819444443,0)" xlink:href="#n"/></g><path fill="#333" d="M285-1169c8 382 2 780 4 1169H129v-1349h237c86 239 188 461 253 720 69-258 169-481 255-720h225V0H937c2-390-5-788 6-1169-75 255-170 488-259 729H547c-90-240-185-475-262-729" id="y"/><path fill="#333" d="M259 363l169-662h265L382 363H259" id="z"/><g id="g"><use transform="matrix(0.011935763888888888,0,0,0.011935763888888888,0,0)" xlink:href="#y"/><use transform="matrix(0.011935763888888888,0,0,0.011935763888888888,14.669053819444443,0)" xlink:href="#k"/><use transform="matrix(0.011935763888888888,0,0,0.011935763888888888,29.338107638888886,0)" xlink:href="#s"/><use transform="matrix(0.011935763888888888,0,0,0.011935763888888888,44.00716145833333,0)" xlink:href="#z"/></g><g id="h"><use transform="matrix(0.011935763888888888,0,0,0.011935763888888888,0,0)" xlink:href="#s"/><use transform="matrix(0.011935763888888888,0,0,0.011935763888888888,14.669053819444443,0)" xlink:href="#u"/><use transform="matrix(0.011935763888888888,0,0,0.011935763888888888,29.338107638888886,0)" xlink:href="#k"/><use transform="matrix(0.011935763888888888,0,0,0.011935763888888888,44.00716145833333,0)" xlink:href="#q"/></g><path fill="#333" d="M614-1226c-167 1-283 53-283 213 0 183 186 193 334 234 230 63 463 120 463 409 0 286-219 387-518 390C309 23 131-98 79-338l185-37c34 165 149 248 351 246 184-2 324-58 324-238 0-203-207-221-372-266-210-57-422-111-422-377 0-267 201-356 470-360 279-5 430 101 480 324l-188 33c-28-141-121-215-293-213" id="A"/><path fill="#333" d="M839-1102c70 0 148 7 206 17v167c-112-18-268-36-363 15-129 69-208 203-208 395V0H294c-10-367 32-789-52-1082h171c21 75 41 161 48 250h5c67-152 152-270 373-270" id="B"/><path fill="#333" d="M914 0L548-499l-132 98V0H236v-1484h180v927l475-525h211L663-617 1125 0H914" id="C"/><g id="i"><use transform="matrix(0.011935763888888888,0,0,0.011935763888888888,0,0)" xlink:href="#A"/><use transform="matrix(0.011935763888888888,0,0,0.011935763888888888,14.669053819444443,0)" xlink:href="#u"/><use transform="matrix(0.011935763888888888,0,0,0.011935763888888888,29.338107638888886,0)" xlink:href="#B"/><use transform="matrix(0.011935763888888888,0,0,0.011935763888888888,44.00716145833333,0)" xlink:href="#o"/><use transform="matrix(0.011935763888888888,0,0,0.011935763888888888,58.67621527777777,0)" xlink:href="#q"/><use transform="matrix(0.011935763888888888,0,0,0.011935763888888888,73.34526909722221,0)" xlink:href="#C"/></g></defs></g></svg>