<svg xmlns="http://www.w3.org/2000/svg" xmlns:xlink="http://www.w3.org/1999/xlink" xmlns:lucid="lucid" width="532.5" height="340"><g transform="translate(-345 -200)" lucid:page-tab-id="0_0"><path d="M0 0h1870.4v1323.2H0z" fill="#fff"/><path d="M520 270c0 27.6-22.4 50-50 50s-50-22.4-50-50 22.4-50 50-50 50 22.4 50 50z" stroke="#5e5e5e" stroke-width="5" fill="#fff"/><path d="M442.5 252.88c0-3.32 2.7-6 6-6h43c3.3 0 6 2.68 6 6v34.25c0 3.3-2.7 6-6 6h-43c-3.3 0-6-2.7-6-6z" stroke="#000" stroke-opacity="0" stroke-width="2" fill="#fff" fill-opacity="0"/><use xlink:href="#a" transform="matrix(1,0,0,1,447.5,251.875) translate(16.32716049382716 22.40277777777778)"/><path d="M820 470c0 27.6-22.4 50-50 50s-50-22.4-50-50 22.4-50 50-50 50 22.4 50 50z" stroke="#5e5e5e" stroke-width="5" fill="#fff"/><path d="M742.5 452.88c0-3.32 2.7-6 6-6h43c3.3 0 6 2.68 6 6v34.25c0 3.3-2.7 6-6 6h-43c-3.3 0-6-2.7-6-6z" stroke="#000" stroke-opacity="0" stroke-width="2" fill="#fff" fill-opacity="0"/><use xlink:href="#a" transform="matrix(1,0,0,1,747.5,451.875) translate(16.32716049382716 22.40277777777778)"/><path d="M820 270c0 27.6-22.4 50-50 50s-50-22.4-50-50 22.4-50 50-50 50 22.4 50 50z" stroke="#5e5e5e" stroke-width="5" fill="#fff"/><path d="M742.5 252.88c0-3.32 2.7-6 6-6h43c3.3 0 6 2.68 6 6v34.25c0 3.3-2.7 6-6 6h-43c-3.3 0-6-2.7-6-6z" stroke="#000" stroke-opacity="0" stroke-width="2" fill="#fff" fill-opacity="0"/><use xlink:href="#a" transform="matrix(1,0,0,1,747.5,251.875) translate(16.32716049382716 22.40277777777778)"/><path d="M502.5 430c0 27.6-22.4 50-50 50s-50-22.4-50-50 22.4-50 50-50 50 22.4 50 50z" stroke="#5e5e5e" stroke-width="5" fill="#fff"/><path d="M425 412.88c0-3.32 2.7-6 6-6h43c3.3 0 6 2.68 6 6v34.25c0 3.3-2.7 6-6 6h-43c-3.3 0-6-2.7-6-6z" stroke="#000" stroke-opacity="0" stroke-width="2" fill="#fff" fill-opacity="0"/><use xlink:href="#a" transform="matrix(1,0,0,1,430,411.875) translate(16.32716049382716 22.40277777777778)"/><path d="M469.96 323.5l-.2 4.2-.55 4.16-.82 3.6-1.1 3.33-1.48 3.4-2.55 4.6-6.55 11-.72 1.67" stroke="#ef8d22" stroke-width="2" fill="none"/><path d="M469.98 322.5l1.02-.03-.05 1.1-2-.1.05-1.02z" fill="#ef8d22"/><path d="M453.1 374.32l-1.84-14.88 9.1 1.75z" stroke="#ef8d22" stroke-width="2" fill="#ef8d22"/><path d="M506 430.02l15 .3 13.3.83 11.44 1.2 10.18 1.5 9.42 1.8 9.1 2.13 9.46 2.64 11.47 3.75 43.23 15.4 9.46 2.63 9.1 2.14 9.42 1.8 10.18 1.5 11.44 1.2 10.8.66" stroke="#ef8d22" stroke-width="2" fill="none"/><path d="M506.05 429.02l-.04 2-1.05-.02.05-.98-.03-1.02z" fill="#ef8d22"/><path d="M714.26 469.9l-14.38 4.26.24-9.27z" stroke="#ef8d22" stroke-width="2" fill="#ef8d22"/><path d="M770 416.5V341" stroke="#ef8d22" stroke-width="2" fill="none"/><path d="M771 417.55l-.98-.05-1.02.03v-1.06h2z" fill="#ef8d22"/><path d="M770 325.74l4.64 14.26h-9.28z" stroke="#ef8d22" stroke-width="2" fill="#ef8d22"/><path d="M523.5 270H699" stroke="#ef8d22" stroke-width="2" fill="none"/><path d="M523.53 271h-1.08l.05-.98-.03-1.02h1.06z" fill="#ef8d22"/><path d="M714.26 270L700 274.64v-9.28z" stroke="#ef8d22" stroke-width="2" fill="#ef8d22"/><path d="M540 246c0-3.3 2.7-6 6-6h125.5c3.3 0 6 2.7 6 6v22.38c0 3.3-2.7 6-6 6H546c-3.3 0-6-2.7-6-6z" stroke="#000" stroke-opacity="0" stroke-width="2" fill="#fff" fill-opacity="0"/><use xlink:href="#b" transform="matrix(1,0,0,1,545,245) translate(51.65432098765432 19.34027777777778)"/><path d="M720 366c0-3.3 2.7-6 6-6h125.5c3.3 0 6 2.7 6 6v22.38c0 3.3-2.7 6-6 6H726c-3.3 0-6-2.7-6-6z" stroke="#000" stroke-opacity="0" stroke-width="2" fill="#fff" fill-opacity="0"/><use xlink:href="#c" transform="matrix(1,0,0,1,725,365) translate(57.82716049382716 19.34027777777778)"/><path d="M520 452.88c0-3.32 2.7-6 6-6h125.5c3.3 0 6 2.68 6 6v22.37c0 3.3-2.7 6-6 6H526c-3.3 0-6-2.7-6-6z" stroke="#000" stroke-opacity="0" stroke-width="2" fill="#fff" fill-opacity="0"/><use xlink:href="#d" transform="matrix(1,0,0,1,525,451.875) translate(57.82716049382716 19.34027777777778)"/><path d="M365 331.63c0-3.32 2.7-6 6-6h125.5c3.3 0 6 2.68 6 6V354c0 3.3-2.7 6-6 6H371c-3.3 0-6-2.7-6-6z" stroke="#000" stroke-opacity="0" stroke-width="2" fill="#fff" fill-opacity="0"/><use xlink:href="#e" transform="matrix(1,0,0,1,370,330.625) translate(57.82716049382716 19.34027777777778)"/><defs><path d="M101-251c68 0 85 55 85 127S166 4 100 4C33 4 14-52 14-124c0-73 17-127 87-127zm-1 229c47 0 54-49 54-102s-4-102-53-102c-51 0-55 48-55 102 0 53 5 102 54 102" id="f"/><use transform="matrix(0.06172839506172839,0,0,0.06172839506172839,0,0)" xlink:href="#f" id="a"/><path d="M27 0v-27h64v-190l-56 39v-29l58-41h29v221h61V0H27" id="g"/><g id="b"><use transform="matrix(0.06172839506172839,0,0,0.06172839506172839,0,0)" xlink:href="#g"/><use transform="matrix(0.06172839506172839,0,0,0.06172839506172839,12.345679012345679,0)" xlink:href="#f"/></g><use transform="matrix(0.06172839506172839,0,0,0.06172839506172839,0,0)" xlink:href="#g" id="c"/><path d="M126-127c33 6 58 20 58 59 0 88-139 92-164 29-3-8-5-16-6-25l32-3c6 27 21 44 54 44 32 0 52-15 52-46 0-38-36-46-79-43v-28c39 1 72-4 72-42 0-27-17-43-46-43-28 0-47 15-49 41l-32-3c6-42 35-63 81-64 48-1 79 21 79 65 0 36-21 52-52 59" id="h"/><use transform="matrix(0.06172839506172839,0,0,0.06172839506172839,0,0)" xlink:href="#h" id="d"/><path d="M54-142c48-35 137-8 131 61C196 18 31 33 14-55l32-4c7 23 22 37 52 37 35-1 51-22 54-58 4-55-73-65-99-34H22l8-134h141v27H59" id="i"/><use transform="matrix(0.06172839506172839,0,0,0.06172839506172839,0,0)" xlink:href="#i" id="e"/></defs></g></svg>