<svg xmlns="http://www.w3.org/2000/svg" xmlns:xlink="http://www.w3.org/1999/xlink" xmlns:lucid="lucid" width="1760" height="433.33"><g transform="translate(-500 -230)" lucid:page-tab-id="0_0"><path d="M548 427.77c-15.46 0-28-12.53-28-28 0-12.37 7.58-22.8 19.35-26.63-.68-36.37 45.98-43.37 64.65-29.37 9.33-21 56-14 56 7 28-7 56 21 37.33 56 18.67 28 0 63-37.33 49-9.33 18.2-46.67 18.2-56 0-18.67 14-56 7-56-28z" stroke="#0c7cba" stroke-width="2" fill="#83bbe5"/><use xlink:href="#a" transform="matrix(1,0,0,1,525,334.773301621069) translate(52.641975308641975 70.99652777777777)"/><path d="M702.43 400h63.92" stroke="#5e5e5e" stroke-width="2" fill="none"/><path d="M702.46 401h-1.42l.78-2h.64z" fill="#5e5e5e"/><path d="M781.62 400l-14.27 4.64v-9.28z" stroke="#5e5e5e" stroke-width="2" fill="#5e5e5e"/><path d="M859.1 324.24c2.33-2.34 6.13-2.34 8.48 0l71.5 71.52c2.35 2.34 2.35 6.14 0 8.48l-71.5 71.52c-2.35 2.34-6.15 2.34-8.5 0l-71.5-71.52c-2.35-2.34-2.35-6.14 0-8.48z" stroke="#19967d" stroke-width="2" fill="#a3d977"/><use xlink:href="#b" transform="matrix(1,0,0,1,788.3333333333334,325) translate(50.31364197530864 64.65277777777777)"/><use xlink:href="#c" transform="matrix(1,0,0,1,788.3333333333334,325) translate(31.23956790123456 91.31944444444446)"/><path d="M942.82 400h71.6c3.3 0 6-2.7 6-6v-78c0-3.3 2.67-6 6-6h54.08" stroke="#5e5e5e" stroke-width="2" fill="none"/><path d="M942.84 401h-1.16l.18-1.3-.16-.7h1.14z" fill="#5e5e5e"/><path d="M1095.76 310l-14.26 4.64v-9.28z" stroke="#5e5e5e" stroke-width="2" fill="#5e5e5e"/><path d="M1641.52 266c0-3.3 2.68-6 6-6h88c3.3 0 6 2.7 6 6v108c0 3.3-2.7 6-6 6h-88c-3.32 0-6-2.7-6-6z" stroke="#ef8d22" stroke-width="2" fill="#ffc374"/><use xlink:href="#d" transform="matrix(1,0,0,1,1646.5178799454097,265) translate(25.246913580246915 45.27777777777778)"/><use xlink:href="#e" transform="matrix(1,0,0,1,1646.5178799454097,265) translate(12.345679012345684 71.94444444444446)"/><path d="M1100 436c0-3.3 2.7-6 6-6h88c3.3 0 6 2.7 6 6v108c0 3.3-2.7 6-6 6h-88c-3.3 0-6-2.7-6-6z" stroke="#c92d39" stroke-width="2" fill="#ff8f80"/><use xlink:href="#f" transform="matrix(1,0,0,1,1105,435) translate(22.40740740740741 45.27777777777778)"/><use xlink:href="#e" transform="matrix(1,0,0,1,1105,435) translate(12.345679012345684 71.94444444444446)"/><path d="M1100 256c0-3.3 2.7-6 6-6h88c3.3 0 6 2.7 6 6v108c0 3.3-2.7 6-6 6h-88c-3.3 0-6-2.7-6-6z" stroke="#c92d39" stroke-width="2" fill="#ff8f80"/><use xlink:href="#f" transform="matrix(1,0,0,1,1105,255) translate(22.40740740740741 45.27777777777778)"/><use xlink:href="#e" transform="matrix(1,0,0,1,1105,255) translate(12.345679012345684 71.94444444444446)"/><path d="M1240.76 586c0-3.3 2.7-6 6-6h248c3.3 0 6 2.7 6 6v51.33c0 3.32-2.7 6-6 6h-248c-3.3 0-6-2.68-6-6z" stroke="#000" stroke-opacity="0" stroke-width="2" fill="#fff" fill-opacity="0"/><use xlink:href="#g" transform="matrix(1,0,0,1,1245.7589399727049,585) translate(5.956790123456784 31.27777777777778)"/><use xlink:href="#h" transform="matrix(1,0,0,1,1245.7589399727049,585) translate(76.26543209876542 31.27777777777778)"/><use xlink:href="#i" transform="matrix(1,0,0,1,1245.7589399727049,585) translate(100.95679012345677 31.27777777777778)"/><use xlink:href="#j" transform="matrix(1,0,0,1,1245.7589399727049,585) translate(156.51234567901233 31.27777777777778)"/><path d="M1641.52 446c0-3.3 2.68-6 6-6h88c3.3 0 6 2.7 6 6v108c0 3.3-2.7 6-6 6h-88c-3.32 0-6-2.7-6-6z" stroke="#ef8d22" stroke-width="2" fill="#ffc374"/><use xlink:href="#d" transform="matrix(1,0,0,1,1646.5178799454097,445) translate(25.246913580246915 45.27777777777778)"/><use xlink:href="#e" transform="matrix(1,0,0,1,1646.5178799454097,445) translate(12.345679012345684 71.94444444444446)"/><path d="M2140 266c0-3.3 2.7-6 6-6h88c3.3 0 6 2.7 6 6v108c0 3.3-2.7 6-6 6h-88c-3.3 0-6-2.7-6-6z" stroke="#19967d" stroke-width="2" fill="#5abaa7"/><use xlink:href="#k" transform="matrix(1,0,0,1,2145,265) translate(29.598765432098766 45.27777777777778)"/><use xlink:href="#e" transform="matrix(1,0,0,1,2145,265) translate(12.345679012345684 71.94444444444446)"/><path d="M2140 446c0-3.3 2.7-6 6-6h88c3.3 0 6 2.7 6 6v108c0 3.3-2.7 6-6 6h-88c-3.3 0-6-2.7-6-6z" stroke="#19967d" stroke-width="2" fill="#5abaa7"/><use xlink:href="#k" transform="matrix(1,0,0,1,2145,445) translate(29.598765432098766 45.27777777777778)"/><use xlink:href="#e" transform="matrix(1,0,0,1,2145,445) translate(12.345679012345684 71.94444444444446)"/><path d="M942.82 400h71.6c3.3 0 6 2.7 6 6v78c0 3.3 2.67 6 6 6h54.08" stroke="#5e5e5e" stroke-width="2" fill="none"/><path d="M942.84 401h-1.16l.18-1.3-.16-.7h1.14z" fill="#5e5e5e"/><path d="M1095.76 490l-14.26 4.64v-9.28z" stroke="#5e5e5e" stroke-width="2" fill="#5e5e5e"/><path d="M1935.76 324.24c2.34-2.34 6.14-2.34 8.48 0l71.52 71.52c2.34 2.34 2.34 6.14 0 8.48l-71.52 71.52c-2.34 2.34-6.14 2.34-8.48 0l-71.52-71.52c-2.34-2.34-2.34-6.14 0-8.48z" stroke="#19967d" stroke-width="2" fill="#a3d977"/><use xlink:href="#b" transform="matrix(1,0,0,1,1865,325) translate(50.31364197530864 64.65277777777777)"/><use xlink:href="#c" transform="matrix(1,0,0,1,1865,325) translate(31.23956790123456 91.31944444444446)"/><path d="M1416.52 324.24c2.34-2.34 6.14-2.34 8.48 0l71.52 71.52c2.34 2.34 2.34 6.14 0 8.48L1425 475.76c-2.34 2.34-6.14 2.34-8.48 0L1345 404.24c-2.34-2.34-2.34-6.14 0-8.48z" stroke="#19967d" stroke-width="2" fill="#a3d977"/><use xlink:href="#b" transform="matrix(1,0,0,1,1345.7589399727049,325) translate(50.31364197530864 64.65277777777777)"/><use xlink:href="#c" transform="matrix(1,0,0,1,1345.7589399727049,325) translate(31.23956790123456 91.31944444444446)"/><path d="M1202 310h63.64c3.3 0 6 2.7 6 6v78c0 3.3 2.68 6 6 6h46.13" stroke="#5e5e5e" stroke-width="2" fill="none"/><path d="M1202.03 311H1201v-2h1.03z" fill="#5e5e5e"/><path d="M1339.04 400l-14.27 4.64v-9.28z" stroke="#5e5e5e" stroke-width="2" fill="#5e5e5e"/><path d="M1202 490h63.64c3.3 0 6-2.7 6-6v-78c0-3.3 2.68-6 6-6h46.13" stroke="#5e5e5e" stroke-width="2" fill="none"/><path d="M1202.03 491H1201v-2h1.03z" fill="#5e5e5e"/><path d="M1339.04 400l-14.27 4.64v-9.28z" stroke="#5e5e5e" stroke-width="2" fill="#5e5e5e"/><path d="M1500.24 400h63.64c3.3 0 6-2.7 6-6v-68c0-3.3 2.7-6 6-6h46.14" stroke="#5e5e5e" stroke-width="2" fill="none"/><path d="M1500.27 401h-1.17l.18-1.3-.15-.7h1.14z" fill="#5e5e5e"/><path d="M1637.28 320l-14.26 4.64v-9.28z" stroke="#5e5e5e" stroke-width="2" fill="#5e5e5e"/><path d="M1500.24 400h63.64c3.3 0 6 2.7 6 6v88c0 3.3 2.7 6 6 6h46.14" stroke="#5e5e5e" stroke-width="2" fill="none"/><path d="M1500.27 401h-1.17l.18-1.3-.15-.7h1.14z" fill="#5e5e5e"/><path d="M1637.28 500l-14.26 4.64v-9.28z" stroke="#5e5e5e" stroke-width="2" fill="#5e5e5e"/><path d="M1743.52 320h52.5c3.3 0 6 2.7 6 6v68c0 3.3 2.68 6 6 6h35" stroke="#5e5e5e" stroke-width="2" fill="none"/><path d="M1743.54 321h-1.02v-2h1.02z" fill="#5e5e5e"/><path d="M1858.28 400l-14.26 4.64v-9.28z" stroke="#5e5e5e" stroke-width="2" fill="#5e5e5e"/><path d="M1743.52 500h52.55c3.3 0 6-2.7 6-6v-87.1c0-3.3 2.68-6 6-6h35.04" stroke="#5e5e5e" stroke-width="2" fill="none"/><path d="M1743.54 501h-1.02v-2h1.02z" fill="#5e5e5e"/><path d="M1858.38 400.9l-14.27 4.64v-9.27z" stroke="#5e5e5e" stroke-width="2" fill="#5e5e5e"/><path d="M2019.48 400h53.26c3.3 0 6-2.7 6-6v-68.52c0-3.3 2.7-6 6-6h35.76" stroke="#5e5e5e" stroke-width="2" fill="none"/><path d="M2019.5 401h-1.16l.18-1.3-.15-.7h1.14z" fill="#5e5e5e"/><path d="M2135.76 319.48l-14.26 4.64v-9.27z" stroke="#5e5e5e" stroke-width="2" fill="#5e5e5e"/><path d="M2019.48 400h53.26c3.3 0 6 2.7 6 6v88c0 3.3 2.7 6 6 6h35.76" stroke="#5e5e5e" stroke-width="2" fill="none"/><path d="M2019.5 401h-1.16l.18-1.3-.15-.7h1.14z" fill="#5e5e5e"/><path d="M2135.76 500l-14.26 4.64v-9.28z" stroke="#5e5e5e" stroke-width="2" fill="#5e5e5e"/><path d="M720 474.33c0-3.3 2.7-6 6-6h268c3.3 0 6 2.7 6 6v51.34c0 3.3-2.7 6-6 6H726c-3.3 0-6-2.7-6-6z" stroke="#000" stroke-opacity="0" stroke-width="2" fill="#fff" fill-opacity="0"/><g><use xlink:href="#l" transform="matrix(1,0,0,1,725,473.3333333333333) translate(16.500000000000014 29.5)"/><use xlink:href="#m" transform="matrix(1,0,0,1,725,473.3333333333333) translate(120.27777777777779 29.5)"/><use xlink:href="#n" transform="matrix(1,0,0,1,725,473.3333333333333) translate(203.55555555555554 29.5)"/></g><path d="M1280 475.77c0-3.3 2.7-6 6-6h268c3.3 0 6 2.7 6 6v51.34c0 3.32-2.7 6-6 6h-268c-3.3 0-6-2.68-6-6z" stroke="#000" stroke-opacity="0" stroke-width="2" fill="#fff" fill-opacity="0"/><g><use xlink:href="#o" transform="matrix(1,0,0,1,1285,474.773301621069) translate(65.83333333333334 29.5)"/><use xlink:href="#n" transform="matrix(1,0,0,1,1285,474.773301621069) translate(154.22222222222223 29.5)"/></g><path d="M1800.76 474.33c0-3.3 2.7-6 6-6h268c3.3 0 6 2.7 6 6v51.34c0 3.3-2.7 6-6 6h-268c-3.3 0-6-2.7-6-6z" stroke="#000" stroke-opacity="0" stroke-width="2" fill="#fff" fill-opacity="0"/><g><use xlink:href="#p" transform="matrix(1,0,0,1,1805.7589399727049,473.3333333333333) translate(72.30555555555557 29.5)"/><use xlink:href="#n" transform="matrix(1,0,0,1,1805.7589399727049,473.3333333333333) translate(147.75 29.5)"/></g><defs><path d="M212-179c-10-28-35-45-73-45-59 0-87 40-87 99 0 60 29 101 89 101 43 0 62-24 78-52l27 14C228-24 195 4 139 4 59 4 22-46 18-125c-6-104 99-153 187-111 19 9 31 26 39 46" id="q"/><path d="M24 0v-261h32V0H24" id="r"/><path d="M24-231v-30h32v30H24zM24 0v-190h32V0H24" id="s"/><path d="M100-194c63 0 86 42 84 106H49c0 40 14 67 53 68 26 1 43-12 49-29l28 8c-11 28-37 45-77 45C44 4 14-33 15-96c1-61 26-98 85-98zm52 81c6-60-76-77-97-28-3 7-6 17-6 28h103" id="t"/><path d="M117-194c89-4 53 116 60 194h-32v-121c0-31-8-49-39-48C34-167 62-67 57 0H25l-1-190h30c1 10-1 24 2 32 11-22 29-35 61-36" id="u"/><path d="M59-47c-2 24 18 29 38 22v24C64 9 27 4 27-40v-127H5v-23h24l9-43h21v43h35v23H59v120" id="v"/><path d="M135-143c-3-34-86-38-87 0 15 53 115 12 119 90S17 21 10-45l28-5c4 36 97 45 98 0-10-56-113-15-118-90-4-57 82-63 122-42 12 7 21 19 24 35" id="w"/><g id="a"><use transform="matrix(0.06172839506172839,0,0,0.06172839506172839,0,0)" xlink:href="#q"/><use transform="matrix(0.06172839506172839,0,0,0.06172839506172839,15.987654320987653,0)" xlink:href="#r"/><use transform="matrix(0.06172839506172839,0,0,0.06172839506172839,20.864197530864196,0)" xlink:href="#s"/><use transform="matrix(0.06172839506172839,0,0,0.06172839506172839,25.74074074074074,0)" xlink:href="#t"/><use transform="matrix(0.06172839506172839,0,0,0.06172839506172839,38.08641975308642,0)" xlink:href="#u"/><use transform="matrix(0.06172839506172839,0,0,0.06172839506172839,50.432098765432094,0)" xlink:href="#v"/><use transform="matrix(0.06172839506172839,0,0,0.06172839506172839,56.60493827160494,0)" xlink:href="#w"/></g><path d="M30 0v-248h33v221h125V0H30" id="x"/><path d="M100-194c62-1 85 37 85 99 1 63-27 99-86 99S16-35 15-95c0-66 28-99 85-99zM99-20c44 1 53-31 53-75 0-43-8-75-51-75s-53 32-53 75 10 74 51 75" id="y"/><path d="M141-36C126-15 110 5 73 4 37 3 15-17 15-53c-1-64 63-63 125-63 3-35-9-54-41-54-24 1-41 7-42 31l-33-3c5-37 33-52 76-52 45 0 72 20 72 64v82c-1 20 7 32 28 27v20c-31 9-61-2-59-35zM48-53c0 20 12 33 32 33 41-3 63-29 60-74-43 2-92-5-92 41" id="z"/><path d="M85-194c31 0 48 13 60 33l-1-100h32l1 261h-30c-2-10 0-23-3-31C134-8 116 4 85 4 32 4 16-35 15-94c0-66 23-100 70-100zm9 24c-40 0-46 34-46 75 0 40 6 74 45 74 42 0 51-32 51-76 0-42-9-74-50-73" id="A"/><g id="b"><use transform="matrix(0.06172839506172839,0,0,0.06172839506172839,0,0)" xlink:href="#x"/><use transform="matrix(0.06172839506172839,0,0,0.06172839506172839,12.345679012345679,0)" xlink:href="#y"/><use transform="matrix(0.06172839506172839,0,0,0.06172839506172839,24.691358024691358,0)" xlink:href="#z"/><use transform="matrix(0.06172839506172839,0,0,0.06172839506172839,37.03703703703704,0)" xlink:href="#A"/></g><path d="M160-131c35 5 61 23 61 61C221 17 115-2 30 0v-248c76 3 177-17 177 60 0 33-19 50-47 57zm-97-11c50-1 110 9 110-42 0-47-63-36-110-37v79zm0 115c55-2 124 14 124-45 0-56-70-42-124-44v89" id="B"/><path d="M96-169c-40 0-48 33-48 73s9 75 48 75c24 0 41-14 43-38l32 2c-6 37-31 61-74 61-59 0-76-41-82-99-10-93 101-131 147-64 4 7 5 14 7 22l-32 3c-4-21-16-35-41-35" id="C"/><path d="M114-163C36-179 61-72 57 0H25l-1-190h30c1 12-1 29 2 39 6-27 23-49 58-41v29" id="D"/><g id="c"><use transform="matrix(0.06172839506172839,0,0,0.06172839506172839,0,0)" xlink:href="#B"/><use transform="matrix(0.06172839506172839,0,0,0.06172839506172839,14.814814814814813,0)" xlink:href="#z"/><use transform="matrix(0.06172839506172839,0,0,0.06172839506172839,27.160493827160494,0)" xlink:href="#r"/><use transform="matrix(0.06172839506172839,0,0,0.06172839506172839,32.03703703703704,0)" xlink:href="#z"/><use transform="matrix(0.06172839506172839,0,0,0.06172839506172839,44.382716049382715,0)" xlink:href="#u"/><use transform="matrix(0.06172839506172839,0,0,0.06172839506172839,56.72839506172839,0)" xlink:href="#C"/><use transform="matrix(0.06172839506172839,0,0,0.06172839506172839,67.8395061728395,0)" xlink:href="#t"/><use transform="matrix(0.06172839506172839,0,0,0.06172839506172839,80.18518518518519,0)" xlink:href="#D"/></g><path d="M205 0l-28-72H64L36 0H1l101-248h38L239 0h-34zm-38-99l-47-123c-12 45-31 82-46 123h93" id="E"/><path d="M115-194c55 1 70 41 70 98S169 2 115 4C84 4 66-9 55-30l1 105H24l-1-265h31l2 30c10-21 28-34 59-34zm-8 174c40 0 45-34 45-75s-6-73-45-74c-42 0-51 32-51 76 0 43 10 73 51 73" id="F"/><g id="d"><use transform="matrix(0.06172839506172839,0,0,0.06172839506172839,0,0)" xlink:href="#E"/><use transform="matrix(0.06172839506172839,0,0,0.06172839506172839,14.814814814814813,0)" xlink:href="#F"/><use transform="matrix(0.06172839506172839,0,0,0.06172839506172839,27.160493827160494,0)" xlink:href="#F"/></g><path d="M185-189c-5-48-123-54-124 2 14 75 158 14 163 119 3 78-121 87-175 55-17-10-28-26-33-46l33-7c5 56 141 63 141-1 0-78-155-14-162-118-5-82 145-84 179-34 5 7 8 16 11 25" id="G"/><path d="M108 0H70L1-190h34L89-25l56-165h34" id="H"/><g id="e"><use transform="matrix(0.06172839506172839,0,0,0.06172839506172839,0,0)" xlink:href="#G"/><use transform="matrix(0.06172839506172839,0,0,0.06172839506172839,14.814814814814813,0)" xlink:href="#t"/><use transform="matrix(0.06172839506172839,0,0,0.06172839506172839,27.160493827160494,0)" xlink:href="#D"/><use transform="matrix(0.06172839506172839,0,0,0.06172839506172839,34.50617283950617,0)" xlink:href="#H"/><use transform="matrix(0.06172839506172839,0,0,0.06172839506172839,45.61728395061728,0)" xlink:href="#t"/><use transform="matrix(0.06172839506172839,0,0,0.06172839506172839,57.962962962962955,0)" xlink:href="#D"/></g><path d="M266 0h-40l-56-210L115 0H75L2-248h35L96-30l15-64 43-154h32l59 218 59-218h35" id="I"/><path d="M115-194c53 0 69 39 70 98 0 66-23 100-70 100C84 3 66-7 56-30L54 0H23l1-261h32v101c10-23 28-34 59-34zm-8 174c40 0 45-34 45-75 0-40-5-75-45-74-42 0-51 32-51 76 0 43 10 73 51 73" id="J"/><g id="f"><use transform="matrix(0.06172839506172839,0,0,0.06172839506172839,0,0)" xlink:href="#I"/><use transform="matrix(0.06172839506172839,0,0,0.06172839506172839,20.493827160493826,0)" xlink:href="#t"/><use transform="matrix(0.06172839506172839,0,0,0.06172839506172839,32.839506172839506,0)" xlink:href="#J"/></g><path d="M232-93c-1 65-40 97-104 97C67 4 28-28 28-90v-158h33c8 89-33 224 67 224 102 0 64-133 71-224h33v155" id="K"/><path d="M177-190C167-65 218 103 67 71c-23-6-38-20-44-43l32-5c15 47 100 32 89-28v-30C133-14 115 1 83 1 29 1 15-40 15-95c0-56 16-97 71-98 29-1 48 16 59 35 1-10 0-23 2-32h30zM94-22c36 0 50-32 50-73 0-42-14-75-50-75-39 0-46 34-46 75s6 73 46 73" id="L"/><g id="g"><use transform="matrix(0.06172839506172839,0,0,0.06172839506172839,0,0)" xlink:href="#K"/><use transform="matrix(0.06172839506172839,0,0,0.06172839506172839,15.987654320987653,0)" xlink:href="#w"/><use transform="matrix(0.06172839506172839,0,0,0.06172839506172839,27.098765432098766,0)" xlink:href="#z"/><use transform="matrix(0.06172839506172839,0,0,0.06172839506172839,39.44444444444444,0)" xlink:href="#L"/><use transform="matrix(0.06172839506172839,0,0,0.06172839506172839,51.79012345679012,0)" xlink:href="#t"/></g><path d="M101-234c-31-9-42 10-38 44h38v23H63V0H32v-167H5v-23h27c-7-52 17-82 69-68v24" id="M"/><g id="h"><use transform="matrix(0.06172839506172839,0,0,0.06172839506172839,0,0)" xlink:href="#y"/><use transform="matrix(0.06172839506172839,0,0,0.06172839506172839,12.345679012345679,0)" xlink:href="#M"/></g><g id="i"><use transform="matrix(0.06172839506172839,0,0,0.06172839506172839,0,0)" xlink:href="#x"/><use transform="matrix(0.06172839506172839,0,0,0.06172839506172839,12.345679012345679,0)" xlink:href="#y"/><use transform="matrix(0.06172839506172839,0,0,0.06172839506172839,24.691358024691358,0)" xlink:href="#z"/><use transform="matrix(0.06172839506172839,0,0,0.06172839506172839,37.03703703703704,0)" xlink:href="#A"/></g><g id="j"><use transform="matrix(0.06172839506172839,0,0,0.06172839506172839,0,0)" xlink:href="#B"/><use transform="matrix(0.06172839506172839,0,0,0.06172839506172839,14.814814814814813,0)" xlink:href="#z"/><use transform="matrix(0.06172839506172839,0,0,0.06172839506172839,27.160493827160494,0)" xlink:href="#r"/><use transform="matrix(0.06172839506172839,0,0,0.06172839506172839,32.03703703703704,0)" xlink:href="#z"/><use transform="matrix(0.06172839506172839,0,0,0.06172839506172839,44.382716049382715,0)" xlink:href="#u"/><use transform="matrix(0.06172839506172839,0,0,0.06172839506172839,56.72839506172839,0)" xlink:href="#C"/><use transform="matrix(0.06172839506172839,0,0,0.06172839506172839,67.8395061728395,0)" xlink:href="#t"/><use transform="matrix(0.06172839506172839,0,0,0.06172839506172839,80.18518518518519,0)" xlink:href="#D"/></g><path d="M30-248c118-7 216 8 213 122C240-48 200 0 122 0H30v-248zM63-27c89 8 146-16 146-99s-60-101-146-95v194" id="N"/><g id="k"><use transform="matrix(0.06172839506172839,0,0,0.06172839506172839,0,0)" xlink:href="#N"/><use transform="matrix(0.06172839506172839,0,0,0.06172839506172839,15.987654320987653,0)" xlink:href="#B"/></g><path d="M16-82v-28h88v28H16" id="O"/><g id="l"><use transform="matrix(0.055555555555555546,0,0,0.055555555555555546,0,0)" xlink:href="#q"/><use transform="matrix(0.055555555555555546,0,0,0.055555555555555546,14.388888888888886,0)" xlink:href="#r"/><use transform="matrix(0.055555555555555546,0,0,0.055555555555555546,18.777777777777775,0)" xlink:href="#s"/><use transform="matrix(0.055555555555555546,0,0,0.055555555555555546,23.166666666666664,0)" xlink:href="#t"/><use transform="matrix(0.055555555555555546,0,0,0.055555555555555546,34.27777777777777,0)" xlink:href="#u"/><use transform="matrix(0.055555555555555546,0,0,0.055555555555555546,45.38888888888888,0)" xlink:href="#v"/><use transform="matrix(0.055555555555555546,0,0,0.055555555555555546,50.944444444444436,0)" xlink:href="#O"/><use transform="matrix(0.055555555555555546,0,0,0.055555555555555546,57.55555555555554,0)" xlink:href="#I"/><use transform="matrix(0.055555555555555546,0,0,0.055555555555555546,75.99999999999999,0)" xlink:href="#t"/><use transform="matrix(0.055555555555555546,0,0,0.055555555555555546,87.1111111111111,0)" xlink:href="#J"/></g><path d="M33 0v-248h34V0H33" id="P"/><g id="m"><use transform="matrix(0.055555555555555546,0,0,0.055555555555555546,0,0)" xlink:href="#P"/><use transform="matrix(0.055555555555555546,0,0,0.055555555555555546,5.5555555555555545,0)" xlink:href="#u"/><use transform="matrix(0.055555555555555546,0,0,0.055555555555555546,16.666666666666664,0)" xlink:href="#v"/><use transform="matrix(0.055555555555555546,0,0,0.055555555555555546,22.222222222222218,0)" xlink:href="#t"/><use transform="matrix(0.055555555555555546,0,0,0.055555555555555546,33.33333333333333,0)" xlink:href="#D"/><use transform="matrix(0.055555555555555546,0,0,0.055555555555555546,39.944444444444436,0)" xlink:href="#M"/><use transform="matrix(0.055555555555555546,0,0,0.055555555555555546,45.49999999999999,0)" xlink:href="#z"/><use transform="matrix(0.055555555555555546,0,0,0.055555555555555546,56.6111111111111,0)" xlink:href="#C"/><use transform="matrix(0.055555555555555546,0,0,0.055555555555555546,66.6111111111111,0)" xlink:href="#t"/></g><path d="M179-190L93 31C79 59 56 82 12 73V49c39 6 53-20 64-50L1-190h34L92-34l54-156h33" id="Q"/><g id="n"><use transform="matrix(0.055555555555555546,0,0,0.055555555555555546,0,0)" xlink:href="#x"/><use transform="matrix(0.055555555555555546,0,0,0.055555555555555546,11.111111111111109,0)" xlink:href="#z"/><use transform="matrix(0.055555555555555546,0,0,0.055555555555555546,22.222222222222218,0)" xlink:href="#Q"/><use transform="matrix(0.055555555555555546,0,0,0.055555555555555546,32.222222222222214,0)" xlink:href="#t"/><use transform="matrix(0.055555555555555546,0,0,0.055555555555555546,43.33333333333332,0)" xlink:href="#D"/></g><g id="o"><use transform="matrix(0.055555555555555546,0,0,0.055555555555555546,0,0)" xlink:href="#I"/><use transform="matrix(0.055555555555555546,0,0,0.055555555555555546,18.44444444444444,0)" xlink:href="#t"/><use transform="matrix(0.055555555555555546,0,0,0.055555555555555546,29.55555555555555,0)" xlink:href="#J"/><use transform="matrix(0.055555555555555546,0,0,0.055555555555555546,40.66666666666666,0)" xlink:href="#O"/><use transform="matrix(0.055555555555555546,0,0,0.055555555555555546,47.277777777777764,0)" xlink:href="#E"/><use transform="matrix(0.055555555555555546,0,0,0.055555555555555546,60.611111111111086,0)" xlink:href="#F"/><use transform="matrix(0.055555555555555546,0,0,0.055555555555555546,71.7222222222222,0)" xlink:href="#F"/></g><g id="p"><use transform="matrix(0.055555555555555546,0,0,0.055555555555555546,0,0)" xlink:href="#E"/><use transform="matrix(0.055555555555555546,0,0,0.055555555555555546,13.33333333333333,0)" xlink:href="#F"/><use transform="matrix(0.055555555555555546,0,0,0.055555555555555546,24.44444444444444,0)" xlink:href="#F"/><use transform="matrix(0.055555555555555546,0,0,0.055555555555555546,35.55555555555555,0)" xlink:href="#O"/><use transform="matrix(0.055555555555555546,0,0,0.055555555555555546,42.16666666666666,0)" xlink:href="#N"/><use transform="matrix(0.055555555555555546,0,0,0.055555555555555546,56.55555555555554,0)" xlink:href="#B"/></g></defs></g></svg>