<svg xmlns="http://www.w3.org/2000/svg" xmlns:xlink="http://www.w3.org/1999/xlink" xmlns:lucid="lucid" width="1020" height="733.33"><g transform="translate(-400 -30)" lucid:page-tab-id="0_0"><path d="M680 146c0-3.3 2.7-6 6-6h428c3.3 0 6 2.7 6 6v488c0 3.3-2.7 6-6 6H686c-3.3 0-6-2.7-6-6z" stroke="#5e5e5e" stroke-width="2" fill="#c7e8ac"/><use xlink:href="#a" transform="matrix(1,0,0,1,685,145) translate(105.77777777777777 487.1736305777777)"/><use xlink:href="#b" transform="matrix(1,0,0,1,685,145) translate(161.33333333333331 487.1736305777777)"/><use xlink:href="#c" transform="matrix(1,0,0,1,685,145) translate(255.03703703703704 487.1736305777777)"/><path d="M448 418c-15.46 0-28-12.54-28-28 0-12.37 7.58-22.8 19.35-26.63C438.67 327 485.33 320 504 334c9.33-21 56-14 56 7 28-7 56 21 37.33 56 18.67 28 0 63-37.33 49-9.33 18.2-46.67 18.2-56 0-18.67 14-56 7-56-28z" stroke="#0c7cba" stroke-width="2" fill="#83bbe5"/><use xlink:href="#d" transform="matrix(1,0,0,1,425,325) translate(52.641975308641975 70.99652777777777)"/><path d="M895.76 164.24c2.34-2.34 6.14-2.34 8.48 0l71.52 71.52c2.34 2.34 2.34 6.14 0 8.48l-71.52 71.52c-2.34 2.34-6.14 2.34-8.48 0l-71.52-71.52c-2.34-2.34-2.34-6.14 0-8.48z" stroke="#19967d" stroke-width="2" fill="#7ab648"/><use xlink:href="#e" transform="matrix(1,0,0,1,825,165) translate(53.844506172839516 56.40972222222222)"/><use xlink:href="#f" transform="matrix(1,0,0,1,825,165) translate(32.58524691358024 77.74305555555554)"/><use xlink:href="#g" transform="matrix(1,0,0,1,825,165) translate(43.96796296296297 99.07638888888889)"/><path d="M1300 396c0-3.3 2.7-6 6-6h88c3.3 0 6 2.7 6 6v108c0 3.3-2.7 6-6 6h-88c-3.3 0-6-2.7-6-6z" stroke="#c92d39" stroke-width="2" fill="#ff8f80"/><use xlink:href="#h" transform="matrix(1,0,0,1,1305,395) translate(12.345679012345684 59.02777777777778)"/><path d="M1300 226c0-3.3 2.7-6 6-6h88c3.3 0 6 2.7 6 6v108c0 3.3-2.7 6-6 6h-88c-3.3 0-6-2.7-6-6z" stroke="#c92d39" stroke-width="2" fill="#ff8f80"/><use xlink:href="#h" transform="matrix(1,0,0,1,1305,225) translate(12.345679012345684 59.02777777777778)"/><path d="M820 686c0-3.3 2.7-6 6-6h268c3.3 0 6 2.7 6 6v51.33c0 3.32-2.7 6-6 6H826c-3.3 0-6-2.68-6-6z" stroke="#000" stroke-opacity="0" stroke-width="2" fill="#fff" fill-opacity="0"/><use xlink:href="#i" transform="matrix(1,0,0,1,825,685) translate(6.5802469135802255 31.27777777777778)"/><use xlink:href="#j" transform="matrix(1,0,0,1,825,685) translate(121.33333333333331 31.27777777777778)"/><use xlink:href="#k" transform="matrix(1,0,0,1,825,685) translate(176.88888888888889 31.27777777777778)"/><path d="M1300 566c0-3.3 2.7-6 6-6h88c3.3 0 6 2.7 6 6v108c0 3.3-2.7 6-6 6h-88c-3.3 0-6-2.7-6-6z" stroke="#c92d39" stroke-width="2" fill="#ff8f80"/><use xlink:href="#h" transform="matrix(1,0,0,1,1305,565) translate(12.345679012345684 59.02777777777778)"/><path d="M1300 56c0-3.3 2.7-6 6-6h88c3.3 0 6 2.7 6 6v108c0 3.3-2.7 6-6 6h-88c-3.3 0-6-2.7-6-6z" stroke="#c92d39" stroke-width="2" fill="#ff8f80"/><use xlink:href="#h" transform="matrix(1,0,0,1,1305,55) translate(12.345679012345684 59.02777777777778)"/><path d="M895.76 444.24c2.34-2.34 6.14-2.34 8.48 0l71.52 71.52c2.34 2.34 2.34 6.14 0 8.48l-71.52 71.52c-2.34 2.34-6.14 2.34-8.48 0l-71.52-71.52c-2.34-2.34-2.34-6.14 0-8.48z" stroke="#19967d" stroke-width="2" fill="#7ab648"/><use xlink:href="#e" transform="matrix(1,0,0,1,825,445) translate(53.844506172839516 56.40972222222222)"/><use xlink:href="#l" transform="matrix(1,0,0,1,825,445) translate(32.58524691358024 77.74305555555554)"/><use xlink:href="#m" transform="matrix(1,0,0,1,825,445) translate(36.56055555555557 99.07638888888889)"/><path d="M740.06 384.36l.34 12.78.86 12.4 1.3 11.72 1.67 10.9 1.96 9.9 2.14 8.96 2.28 8 2.35 7.08 2.38 6.28 2.37 5.55 2.34 4.9 2.3 4.34 2.25 3.85 2.2 3.42 2.15 3.04 2.1 2.7 2.02 2.44 1.98 2.17 1.93 1.94 1.9 1.76 1.85 1.58 1.83 1.43 1.8 1.3 1.76 1.16 1.75 1.04 1.74.95 1.74.84 1.72.74 1.72.67 1.73.6 1.74.52 1.75.43 1.77.37 1.53.25-.32 1.97-1.58-.25-1.85-.4-1.83-.45-1.82-.54-1.8-.6-1.8-.7-1.8-.8-1.8-.88-1.82-.98-1.82-1.1-1.84-1.2-1.86-1.33-1.9-1.47-1.9-1.63-1.97-1.82-2-2-2.04-2.25-2.08-2.5-2.14-2.77-2.2-3.1-2.23-3.5-2.28-3.9-2.34-4.43-2.38-4.98-2.4-5.62-2.4-6.36-2.4-7.17-2.3-8.07-2.17-9.03-1.97-10-1.68-10.97-1.3-11.82-.88-12.46-.34-12.87.15-10.6h2zm76.77-145.83l2.37.18 1.44.2-.24 1.97-1.4-.17-2.3-.17-2.2-.08h-2.13l-2.08.1-2.04.2-2 .26-1.94.35-1.92.42-1.9.5-1.87.58-1.87.66-1.86.76-1.86.84-1.86.94-1.87 1.04-1.87 1.16-1.9 1.28-1.93 1.42-1.95 1.57-1.98 1.74-2.02 1.92-2.07 2.14-2.1 2.37-2.16 2.64-2.2 2.95-2.26 3.3-2.3 3.7-2.37 4.14-2.42 4.66-2.43 5.26-2.45 5.93-2.44 6.7-2.4 7.52-2.28 8.43-2.14 9.4-1.9 10.34-1.6 11.26-.54 5.55h-2l.56-5.8 1.6-11.33 1.92-10.43 2.16-9.48 2.3-8.52 2.43-7.6 2.47-6.77 2.48-6 2.47-5.35 2.43-4.74 2.4-4.23 2.35-3.75 2.3-3.36 2.27-3.03 2.2-2.7 2.17-2.43 2.12-2.2 2.08-1.98 2.05-1.8 2-1.6 2-1.47 1.98-1.34 1.95-1.2 1.94-1.1 1.94-.96 1.93-.88 1.95-.78 1.95-.7 1.96-.6 1.97-.52 2-.43 2.04-.37 2.07-.28 2.1-.2 2.17-.1h2.23z" fill="#5e5e5e"/><path d="M821.65 239l-.17 1.3.16.72-1.26-.15.24-2zM818.3 520.65l-14.05 5.3-.43-9.27z" fill="#5e5e5e"/><path d="M821.52 520.5l-18.2 6.87-.57-12zm-16.33 4.02l9.85-3.72-10.17-2.8z" fill="#5e5e5e"/><use xlink:href="#n" transform="matrix(1,0,0,1,689.8680868383266,352.44728469066433) translate(0 14.222222222222223)"/><use xlink:href="#o" transform="matrix(1,0,0,1,689.8680868383266,352.44728469066433) translate(53.283950617283956 14.222222222222223)"/><path d="M1061.94 375.63l-.2 12.93-.7 12.66-1.2 12.12-1.6 11.34-1.92 10.43-2.16 9.48-2.3 8.52-2.43 7.6-2.47 6.77-2.48 6-2.47 5.35-2.43 4.74-2.4 4.23-2.35 3.75-2.3 3.36-2.27 3.03-2.2 2.7-2.17 2.43-2.12 2.2-2.08 1.98-2.05 1.8-2 1.6-2 1.47-1.98 1.34-1.95 1.2-1.94 1.1-1.94.96-1.93.88-1.95.78-1.95.7-1.96.6-1.97.52-2 .43-2.04.37-2.07.28-2.1.2-2.17.1h-2.23l-2.3-.08-2.37-.18-1.44-.2.24-1.97 1.4.17 2.3.17 2.2.08h2.13l2.08-.1 2.04-.2 2-.26 1.94-.35 1.92-.42 1.9-.5 1.87-.58 1.87-.66 1.86-.76 1.86-.84 1.86-.94 1.87-1.04 1.87-1.16 1.9-1.28 1.93-1.42 1.95-1.57 1.98-1.74 2.02-1.92 2.07-2.14 2.1-2.37 2.16-2.64 2.2-2.95 2.26-3.3 2.3-3.7 2.37-4.14 2.42-4.66 2.43-5.26 2.45-5.93 2.44-6.7 2.4-7.52 2.28-8.43 2.14-9.4 1.9-10.34 1.6-11.26 1.18-12.03.7-12.58.2-12.86-.2-7.57h2zM998.6 237.9l1.85.4 1.83.45 1.82.54 1.8.6 1.8.7 1.8.8 1.8.88 1.82.98 1.82 1.1 1.84 1.2 1.86 1.33 1.9 1.47 1.9 1.63 1.97 1.82 2 2 2.04 2.25 2.08 2.5 2.14 2.77 2.2 3.1 2.23 3.5 2.28 3.9 2.34 4.43 2.38 4.98 2.4 5.62 2.4 6.36 2.4 7.17 2.3 8.07 2.17 9.03 1.97 10 1.68 10.97.92 8.27h-2l-.9-8-1.67-10.9-1.96-9.9-2.14-8.96-2.28-8-2.35-7.08-2.38-6.28-2.37-5.55-2.34-4.9-2.3-4.34-2.25-3.85-2.2-3.42-2.15-3.04-2.1-2.7-2.02-2.44-1.98-2.17-1.93-1.94-1.9-1.76-1.85-1.58-1.83-1.43-1.8-1.3-1.76-1.16-1.75-1.04-1.74-.95-1.74-.84-1.72-.74-1.72-.67-1.73-.6-1.74-.52-1.75-.43-1.77-.37-1.53-.25.32-1.97z" fill="#5e5e5e"/><path d="M979.62 519.13l-.24 2-1.03-.14.17-1.3-.16-.72zM996.18 243.32l-14.47-3.97 14.05-5.3z" fill="#5e5e5e"/><path d="M997.25 244.64l-18.77-5.13 18.2-6.87zm-12.3-5.44l10.17 2.8-.3-6.52z" fill="#5e5e5e"/><use xlink:href="#n" transform="matrix(1,0,0,1,1010.3718391548667,346.74042347741323) translate(0 14.222222222222223)"/><use xlink:href="#o" transform="matrix(1,0,0,1,1010.3718391548667,346.74042347741323) translate(53.283950617283956 14.222222222222223)"/><path d="M660.5 391.23h-58.07v-2h58.07z" fill="#5e5e5e"/><path d="M602.46 391.23h-1.42l.78-2h.64zM675.76 390.23l-14.26 4.63v-9.27z" fill="#5e5e5e"/><path d="M679 390.23l-18.5 6v-12zm-16.5 3.26l10.03-3.27-10.03-3.26zM1280.5 111h-64.37l-2.64.7-1.8 1.8-.7 2.63v268l-.92 3.42-2.53 2.53-3.42.92h-64.63v-2h64.37l2.64-.7 1.8-1.8.7-2.63v-268l.92-3.42 2.53-2.53 3.42-.92h64.63zM1138.5 394.64l-14.26-4.64 14.26-4.64z" fill="#5e5e5e"/><path d="M1139.5 396l-18.5-6 18.5-6zm-12.03-6l10.03 3.26v-6.52zM1295.76 110l-14.26 4.64v-9.28z" fill="#5e5e5e"/><path d="M1299 110l-18.5 6v-12zm-16.5 3.26l10.03-3.26-10.03-3.26zM1207.55 389.92l2.53 2.53.92 3.42v218l.7 2.64 1.8 1.8 2.63.7h64.37v2h-64.63l-3.42-.92-2.53-2.53-.92-3.42v-218l-.7-2.64-1.8-1.8-2.63-.7h-64.37v-2h64.63zM1138.5 394.64l-14.26-4.64 14.26-4.64z" fill="#5e5e5e"/><path d="M1139.5 396l-18.5-6 18.5-6zm-12.03-6l10.03 3.26v-6.52zM1295.76 620l-14.26 4.64v-9.28z" fill="#5e5e5e"/><path d="M1299 620l-18.5 6v-12zm-16.5 3.26l10.03-3.26-10.03-3.26zM1207.55 389.92l2.53 2.53.92 3.42v48l.7 2.64 1.8 1.8 2.63.7h64.37v2h-64.63l-3.42-.92-2.53-2.53-.92-3.42v-48l-.7-2.64-1.8-1.8-2.63-.7h-64.37v-2h64.63zM1138.5 394.64l-14.26-4.64 14.26-4.64z" fill="#5e5e5e"/><path d="M1139.5 396l-18.5-6 18.5-6zm-12.03-6l10.03 3.26v-6.52zM1295.76 450l-14.26 4.64v-9.28z" fill="#5e5e5e"/><path d="M1299 450l-18.5 6v-12zm-16.5 3.26l10.03-3.26-10.03-3.26zM1280.5 281h-64.37l-2.64.7-1.8 1.8-.7 2.63v98l-.92 3.42-2.53 2.53-3.42.92h-64.63v-2h64.37l2.64-.7 1.8-1.8.7-2.63v-98l.92-3.42 2.53-2.53 3.42-.92h64.63zM1138.5 394.64l-14.26-4.64 14.26-4.64z" fill="#5e5e5e"/><path d="M1139.5 396l-18.5-6 18.5-6zm-12.03-6l10.03 3.26v-6.52zM1295.76 280l-14.26 4.64v-9.28z" fill="#5e5e5e"/><path d="M1299 280l-18.5 6v-12zm-16.5 3.26l10.03-3.26-10.03-3.26z" fill="#5e5e5e"/><defs><path d="M30 0v-248h33v221h125V0H30" id="p"/><path d="M100-194c62-1 85 37 85 99 1 63-27 99-86 99S16-35 15-95c0-66 28-99 85-99zM99-20c44 1 53-31 53-75 0-43-8-75-51-75s-53 32-53 75 10 74 51 75" id="q"/><path d="M141-36C126-15 110 5 73 4 37 3 15-17 15-53c-1-64 63-63 125-63 3-35-9-54-41-54-24 1-41 7-42 31l-33-3c5-37 33-52 76-52 45 0 72 20 72 64v82c-1 20 7 32 28 27v20c-31 9-61-2-59-35zM48-53c0 20 12 33 32 33 41-3 63-29 60-74-43 2-92-5-92 41" id="r"/><path d="M85-194c31 0 48 13 60 33l-1-100h32l1 261h-30c-2-10 0-23-3-31C134-8 116 4 85 4 32 4 16-35 15-94c0-66 23-100 70-100zm9 24c-40 0-46 34-46 75 0 40 6 74 45 74 42 0 51-32 51-76 0-42-9-74-50-73" id="s"/><g id="a"><use transform="matrix(0.06172839506172839,0,0,0.06172839506172839,0,0)" xlink:href="#p"/><use transform="matrix(0.06172839506172839,0,0,0.06172839506172839,12.345679012345679,0)" xlink:href="#q"/><use transform="matrix(0.06172839506172839,0,0,0.06172839506172839,24.691358024691358,0)" xlink:href="#r"/><use transform="matrix(0.06172839506172839,0,0,0.06172839506172839,37.03703703703704,0)" xlink:href="#s"/></g><path d="M160-131c35 5 61 23 61 61C221 17 115-2 30 0v-248c76 3 177-17 177 60 0 33-19 50-47 57zm-97-11c50-1 110 9 110-42 0-47-63-36-110-37v79zm0 115c55-2 124 14 124-45 0-56-70-42-124-44v89" id="t"/><path d="M24 0v-261h32V0H24" id="u"/><path d="M117-194c89-4 53 116 60 194h-32v-121c0-31-8-49-39-48C34-167 62-67 57 0H25l-1-190h30c1 10-1 24 2 32 11-22 29-35 61-36" id="v"/><path d="M96-169c-40 0-48 33-48 73s9 75 48 75c24 0 41-14 43-38l32 2c-6 37-31 61-74 61-59 0-76-41-82-99-10-93 101-131 147-64 4 7 5 14 7 22l-32 3c-4-21-16-35-41-35" id="w"/><path d="M100-194c63 0 86 42 84 106H49c0 40 14 67 53 68 26 1 43-12 49-29l28 8c-11 28-37 45-77 45C44 4 14-33 15-96c1-61 26-98 85-98zm52 81c6-60-76-77-97-28-3 7-6 17-6 28h103" id="x"/><path d="M114-163C36-179 61-72 57 0H25l-1-190h30c1 12-1 29 2 39 6-27 23-49 58-41v29" id="y"/><g id="b"><use transform="matrix(0.06172839506172839,0,0,0.06172839506172839,0,0)" xlink:href="#t"/><use transform="matrix(0.06172839506172839,0,0,0.06172839506172839,14.814814814814813,0)" xlink:href="#r"/><use transform="matrix(0.06172839506172839,0,0,0.06172839506172839,27.160493827160494,0)" xlink:href="#u"/><use transform="matrix(0.06172839506172839,0,0,0.06172839506172839,32.03703703703704,0)" xlink:href="#r"/><use transform="matrix(0.06172839506172839,0,0,0.06172839506172839,44.382716049382715,0)" xlink:href="#v"/><use transform="matrix(0.06172839506172839,0,0,0.06172839506172839,56.72839506172839,0)" xlink:href="#w"/><use transform="matrix(0.06172839506172839,0,0,0.06172839506172839,67.8395061728395,0)" xlink:href="#x"/><use transform="matrix(0.06172839506172839,0,0,0.06172839506172839,80.18518518518519,0)" xlink:href="#y"/></g><path d="M212-179c-10-28-35-45-73-45-59 0-87 40-87 99 0 60 29 101 89 101 43 0 62-24 78-52l27 14C228-24 195 4 139 4 59 4 22-46 18-125c-6-104 99-153 187-111 19 9 31 26 39 46" id="z"/><path d="M84 4C-5 8 30-112 23-190h32v120c0 31 7 50 39 49 72-2 45-101 50-169h31l1 190h-30c-1-10 1-25-2-33-11 22-28 36-60 37" id="A"/><path d="M135-143c-3-34-86-38-87 0 15 53 115 12 119 90S17 21 10-45l28-5c4 36 97 45 98 0-10-56-113-15-118-90-4-57 82-63 122-42 12 7 21 19 24 35" id="B"/><path d="M59-47c-2 24 18 29 38 22v24C64 9 27 4 27-40v-127H5v-23h24l9-43h21v43h35v23H59v120" id="C"/><g id="c"><use transform="matrix(0.06172839506172839,0,0,0.06172839506172839,0,0)" xlink:href="#z"/><use transform="matrix(0.06172839506172839,0,0,0.06172839506172839,15.987654320987653,0)" xlink:href="#u"/><use transform="matrix(0.06172839506172839,0,0,0.06172839506172839,20.864197530864196,0)" xlink:href="#A"/><use transform="matrix(0.06172839506172839,0,0,0.06172839506172839,33.20987654320987,0)" xlink:href="#B"/><use transform="matrix(0.06172839506172839,0,0,0.06172839506172839,44.32098765432099,0)" xlink:href="#C"/><use transform="matrix(0.06172839506172839,0,0,0.06172839506172839,50.49382716049383,0)" xlink:href="#x"/><use transform="matrix(0.06172839506172839,0,0,0.06172839506172839,62.839506172839506,0)" xlink:href="#y"/></g><path d="M24-231v-30h32v30H24zM24 0v-190h32V0H24" id="D"/><g id="d"><use transform="matrix(0.06172839506172839,0,0,0.06172839506172839,0,0)" xlink:href="#z"/><use transform="matrix(0.06172839506172839,0,0,0.06172839506172839,15.987654320987653,0)" xlink:href="#u"/><use transform="matrix(0.06172839506172839,0,0,0.06172839506172839,20.864197530864196,0)" xlink:href="#D"/><use transform="matrix(0.06172839506172839,0,0,0.06172839506172839,25.74074074074074,0)" xlink:href="#x"/><use transform="matrix(0.06172839506172839,0,0,0.06172839506172839,38.08641975308642,0)" xlink:href="#v"/><use transform="matrix(0.06172839506172839,0,0,0.06172839506172839,50.432098765432094,0)" xlink:href="#C"/><use transform="matrix(0.06172839506172839,0,0,0.06172839506172839,56.60493827160494,0)" xlink:href="#B"/></g><path fill="#fff" d="M24 0v-248h52v208h133V0H24" id="E"/><path fill="#fff" d="M110-194c64 0 96 36 96 99 0 64-35 99-97 99-61 0-95-36-95-99 0-62 34-99 96-99zm-1 164c35 0 45-28 45-65 0-40-10-65-43-65-34 0-45 26-45 65 0 36 10 65 43 65" id="F"/><path fill="#fff" d="M133-34C117-15 103 5 69 4 32 3 11-16 11-54c-1-60 55-63 116-61 1-26-3-47-28-47-18 1-26 9-28 27l-52-2c7-38 36-58 82-57s74 22 75 68l1 82c-1 14 12 18 25 15v27c-30 8-71 5-69-32zm-48 3c29 0 43-24 42-57-32 0-66-3-65 30 0 17 8 27 23 27" id="G"/><path fill="#fff" d="M88-194c31-1 46 15 58 34l-1-101h50l1 261h-48c-2-10 0-23-3-31C134-8 116 4 84 4 32 4 16-41 15-95c0-56 19-97 73-99zm17 164c33 0 40-30 41-66 1-37-9-64-41-64s-38 30-39 65c0 43 13 65 39 65" id="H"/><g id="e"><use transform="matrix(0.049382716049382706,0,0,0.049382716049382706,0,0)" xlink:href="#E"/><use transform="matrix(0.049382716049382706,0,0,0.049382716049382706,10.814814814814813,0)" xlink:href="#F"/><use transform="matrix(0.049382716049382706,0,0,0.049382716049382706,21.629629629629626,0)" xlink:href="#G"/><use transform="matrix(0.049382716049382706,0,0,0.049382716049382706,31.506172839506167,0)" xlink:href="#H"/></g><path fill="#fff" d="M182-130c37 4 62 22 62 59C244 23 116-4 24 0v-248c84 5 203-23 205 63 0 31-19 50-47 55zM76-148c40-3 101 13 101-30 0-44-60-28-101-31v61zm0 110c48-3 116 14 116-37 0-48-69-32-116-35v72" id="I"/><path fill="#fff" d="M25 0v-261h50V0H25" id="J"/><path fill="#fff" d="M135-194c87-1 58 113 63 194h-50c-7-57 23-157-34-157-59 0-34 97-39 157H25l-1-190h47c2 12-1 28 3 38 12-26 28-41 61-42" id="K"/><path fill="#fff" d="M190-63c-7 42-38 67-86 67-59 0-84-38-90-98-12-110 154-137 174-36l-49 2c-2-19-15-32-35-32-30 0-35 28-38 64-6 74 65 87 74 30" id="L"/><path fill="#fff" d="M185-48c-13 30-37 53-82 52C43 2 14-33 14-96s30-98 90-98c62 0 83 45 84 108H66c0 31 8 55 39 56 18 0 30-7 34-22zm-45-69c5-46-57-63-70-21-2 6-4 13-4 21h74" id="M"/><path fill="#fff" d="M135-150c-39-12-60 13-60 57V0H25l-1-190h47c2 13-1 29 3 40 6-28 27-53 61-41v41" id="N"/><path fill="#fff" d="M23 0v-37h61v-169l-59 37v-38l62-41h46v211h57V0H23" id="O"/><g id="f"><use transform="matrix(0.049382716049382706,0,0,0.049382716049382706,0,0)" xlink:href="#I"/><use transform="matrix(0.049382716049382706,0,0,0.049382716049382706,12.790123456790122,0)" xlink:href="#G"/><use transform="matrix(0.049382716049382706,0,0,0.049382716049382706,22.666666666666664,0)" xlink:href="#J"/><use transform="matrix(0.049382716049382706,0,0,0.049382716049382706,27.60493827160494,0)" xlink:href="#G"/><use transform="matrix(0.049382716049382706,0,0,0.049382716049382706,37.48148148148148,0)" xlink:href="#K"/><use transform="matrix(0.049382716049382706,0,0,0.049382716049382706,48.29629629629629,0)" xlink:href="#L"/><use transform="matrix(0.049382716049382706,0,0,0.049382716049382706,58.17283950617284,0)" xlink:href="#M"/><use transform="matrix(0.049382716049382706,0,0,0.049382716049382706,68.04938271604938,0)" xlink:href="#N"/><use transform="matrix(0.049382716049382706,0,0,0.049382716049382706,74.96296296296296,0)" xlink:href="#O"/></g><path fill="#fff" d="M67-93c0 74 22 123 53 168H70C40 30 18-18 18-93s22-123 52-168h50c-32 44-53 94-53 168" id="P"/><path fill="#fff" d="M115-3C79 11 28 4 28-45v-112H4v-33h27l15-45h31v45h36v33H77v99c-1 23 16 31 38 25v30" id="Q"/><path fill="#fff" d="M25-224v-37h50v37H25zM25 0v-190h50V0H25" id="R"/><path fill="#fff" d="M128 0H69L1-190h53L99-40l48-150h52" id="S"/><path fill="#fff" d="M102-93c0 74-22 123-52 168H0C30 29 54-18 53-93c0-74-22-123-53-168h50c30 45 52 94 52 168" id="T"/><g id="g"><use transform="matrix(0.049382716049382706,0,0,0.049382716049382706,0,0)" xlink:href="#P"/><use transform="matrix(0.049382716049382706,0,0,0.049382716049382706,5.876543209876542,0)" xlink:href="#G"/><use transform="matrix(0.049382716049382706,0,0,0.049382716049382706,15.75308641975308,0)" xlink:href="#L"/><use transform="matrix(0.049382716049382706,0,0,0.049382716049382706,25.629629629629626,0)" xlink:href="#Q"/><use transform="matrix(0.049382716049382706,0,0,0.049382716049382706,31.50617283950616,0)" xlink:href="#R"/><use transform="matrix(0.049382716049382706,0,0,0.049382716049382706,36.444444444444436,0)" xlink:href="#S"/><use transform="matrix(0.049382716049382706,0,0,0.049382716049382706,46.32098765432097,0)" xlink:href="#M"/><use transform="matrix(0.049382716049382706,0,0,0.049382716049382706,56.19753086419752,0)" xlink:href="#T"/></g><path d="M185-189c-5-48-123-54-124 2 14 75 158 14 163 119 3 78-121 87-175 55-17-10-28-26-33-46l33-7c5 56 141 63 141-1 0-78-155-14-162-118-5-82 145-84 179-34 5 7 8 16 11 25" id="U"/><path d="M108 0H70L1-190h34L89-25l56-165h34" id="V"/><g id="h"><use transform="matrix(0.06172839506172839,0,0,0.06172839506172839,0,0)" xlink:href="#U"/><use transform="matrix(0.06172839506172839,0,0,0.06172839506172839,14.814814814814813,0)" xlink:href="#x"/><use transform="matrix(0.06172839506172839,0,0,0.06172839506172839,27.160493827160494,0)" xlink:href="#y"/><use transform="matrix(0.06172839506172839,0,0,0.06172839506172839,34.50617283950617,0)" xlink:href="#V"/><use transform="matrix(0.06172839506172839,0,0,0.06172839506172839,45.61728395061728,0)" xlink:href="#x"/><use transform="matrix(0.06172839506172839,0,0,0.06172839506172839,57.962962962962955,0)" xlink:href="#y"/></g><path d="M233-177c-1 41-23 64-60 70L243 0h-38l-65-103H63V0H30v-248c88 3 205-21 203 71zM63-129c60-2 137 13 137-47 0-61-80-42-137-45v92" id="W"/><g id="i"><use transform="matrix(0.06172839506172839,0,0,0.06172839506172839,0,0)" xlink:href="#W"/><use transform="matrix(0.06172839506172839,0,0,0.06172839506172839,15.987654320987653,0)" xlink:href="#x"/><use transform="matrix(0.06172839506172839,0,0,0.06172839506172839,28.333333333333332,0)" xlink:href="#s"/><use transform="matrix(0.06172839506172839,0,0,0.06172839506172839,40.67901234567901,0)" xlink:href="#A"/><use transform="matrix(0.06172839506172839,0,0,0.06172839506172839,53.02469135802469,0)" xlink:href="#v"/><use transform="matrix(0.06172839506172839,0,0,0.06172839506172839,65.37037037037037,0)" xlink:href="#s"/><use transform="matrix(0.06172839506172839,0,0,0.06172839506172839,77.71604938271605,0)" xlink:href="#r"/><use transform="matrix(0.06172839506172839,0,0,0.06172839506172839,90.06172839506173,0)" xlink:href="#v"/><use transform="matrix(0.06172839506172839,0,0,0.06172839506172839,102.40740740740742,0)" xlink:href="#C"/></g><g id="j"><use transform="matrix(0.06172839506172839,0,0,0.06172839506172839,0,0)" xlink:href="#p"/><use transform="matrix(0.06172839506172839,0,0,0.06172839506172839,12.345679012345679,0)" xlink:href="#q"/><use transform="matrix(0.06172839506172839,0,0,0.06172839506172839,24.691358024691358,0)" xlink:href="#r"/><use transform="matrix(0.06172839506172839,0,0,0.06172839506172839,37.03703703703704,0)" xlink:href="#s"/></g><g id="k"><use transform="matrix(0.06172839506172839,0,0,0.06172839506172839,0,0)" xlink:href="#t"/><use transform="matrix(0.06172839506172839,0,0,0.06172839506172839,14.814814814814813,0)" xlink:href="#r"/><use transform="matrix(0.06172839506172839,0,0,0.06172839506172839,27.160493827160494,0)" xlink:href="#u"/><use transform="matrix(0.06172839506172839,0,0,0.06172839506172839,32.03703703703704,0)" xlink:href="#r"/><use transform="matrix(0.06172839506172839,0,0,0.06172839506172839,44.382716049382715,0)" xlink:href="#v"/><use transform="matrix(0.06172839506172839,0,0,0.06172839506172839,56.72839506172839,0)" xlink:href="#w"/><use transform="matrix(0.06172839506172839,0,0,0.06172839506172839,67.8395061728395,0)" xlink:href="#x"/><use transform="matrix(0.06172839506172839,0,0,0.06172839506172839,80.18518518518519,0)" xlink:href="#y"/></g><path fill="#fff" d="M182-182c0 78-84 86-111 141h115V0H12c-6-101 99-100 120-180 1-22-12-31-33-32-23 0-32 14-35 34l-49-3c5-45 32-70 84-70 51 0 83 22 83 69" id="X"/><g id="l"><use transform="matrix(0.049382716049382706,0,0,0.049382716049382706,0,0)" xlink:href="#I"/><use transform="matrix(0.049382716049382706,0,0,0.049382716049382706,12.790123456790122,0)" xlink:href="#G"/><use transform="matrix(0.049382716049382706,0,0,0.049382716049382706,22.666666666666664,0)" xlink:href="#J"/><use transform="matrix(0.049382716049382706,0,0,0.049382716049382706,27.60493827160494,0)" xlink:href="#G"/><use transform="matrix(0.049382716049382706,0,0,0.049382716049382706,37.48148148148148,0)" xlink:href="#K"/><use transform="matrix(0.049382716049382706,0,0,0.049382716049382706,48.29629629629629,0)" xlink:href="#L"/><use transform="matrix(0.049382716049382706,0,0,0.049382716049382706,58.17283950617284,0)" xlink:href="#M"/><use transform="matrix(0.049382716049382706,0,0,0.049382716049382706,68.04938271604938,0)" xlink:href="#N"/><use transform="matrix(0.049382716049382706,0,0,0.049382716049382706,74.96296296296296,0)" xlink:href="#X"/></g><path fill="#fff" d="M135-194c53 0 70 44 70 98 0 56-19 98-73 100-31 1-45-17-59-34 3 33 2 69 2 105H25l-1-265h48c2 10 0 23 3 31 11-24 29-35 60-35zM114-30c33 0 39-31 40-66 0-38-9-64-40-64-56 0-55 130 0 130" id="Y"/><path fill="#fff" d="M137-138c1-29-70-34-71-4 15 46 118 7 119 86 1 83-164 76-172 9l43-7c4 19 20 25 44 25 33 8 57-30 24-41C81-84 22-81 20-136c-2-80 154-74 161-7" id="Z"/><g id="m"><use transform="matrix(0.049382716049382706,0,0,0.049382716049382706,0,0)" xlink:href="#P"/><use transform="matrix(0.049382716049382706,0,0,0.049382716049382706,5.876543209876542,0)" xlink:href="#Y"/><use transform="matrix(0.049382716049382706,0,0,0.049382716049382706,16.691358024691354,0)" xlink:href="#G"/><use transform="matrix(0.049382716049382706,0,0,0.049382716049382706,26.567901234567895,0)" xlink:href="#Z"/><use transform="matrix(0.049382716049382706,0,0,0.049382716049382706,36.444444444444436,0)" xlink:href="#Z"/><use transform="matrix(0.049382716049382706,0,0,0.049382716049382706,46.32098765432097,0)" xlink:href="#R"/><use transform="matrix(0.049382716049382706,0,0,0.049382716049382706,51.25925925925925,0)" xlink:href="#S"/><use transform="matrix(0.049382716049382706,0,0,0.049382716049382706,61.13580246913578,0)" xlink:href="#M"/><use transform="matrix(0.049382716049382706,0,0,0.049382716049382706,71.01234567901233,0)" xlink:href="#T"/></g><path fill="#333" d="M106-169C34-169 62-67 57 0H25v-261h32l-1 103c12-21 28-36 61-36 89 0 53 116 60 194h-32v-121c2-32-8-49-39-48" id="aa"/><path fill="#333" d="M100-194c63 0 86 42 84 106H49c0 40 14 67 53 68 26 1 43-12 49-29l28 8c-11 28-37 45-77 45C44 4 14-33 15-96c1-61 26-98 85-98zm52 81c6-60-76-77-97-28-3 7-6 17-6 28h103" id="ab"/><path fill="#333" d="M141-36C126-15 110 5 73 4 37 3 15-17 15-53c-1-64 63-63 125-63 3-35-9-54-41-54-24 1-41 7-42 31l-33-3c5-37 33-52 76-52 45 0 72 20 72 64v82c-1 20 7 32 28 27v20c-31 9-61-2-59-35zM48-53c0 20 12 33 32 33 41-3 63-29 60-74-43 2-92-5-92 41" id="ac"/><path fill="#333" d="M24 0v-261h32V0H24" id="ad"/><path fill="#333" d="M59-47c-2 24 18 29 38 22v24C64 9 27 4 27-40v-127H5v-23h24l9-43h21v43h35v23H59v120" id="ae"/><g id="n"><use transform="matrix(0.04938271604938272,0,0,0.04938271604938272,0,0)" xlink:href="#aa"/><use transform="matrix(0.04938271604938272,0,0,0.04938271604938272,9.876543209876544,0)" xlink:href="#ab"/><use transform="matrix(0.04938271604938272,0,0,0.04938271604938272,19.75308641975309,0)" xlink:href="#ac"/><use transform="matrix(0.04938271604938272,0,0,0.04938271604938272,29.629629629629633,0)" xlink:href="#ad"/><use transform="matrix(0.04938271604938272,0,0,0.04938271604938272,33.53086419753087,0)" xlink:href="#ae"/><use transform="matrix(0.04938271604938272,0,0,0.04938271604938272,38.46913580246914,0)" xlink:href="#aa"/></g><path fill="#333" d="M96-169c-40 0-48 33-48 73s9 75 48 75c24 0 41-14 43-38l32 2c-6 37-31 61-74 61-59 0-76-41-82-99-10-93 101-131 147-64 4 7 5 14 7 22l-32 3c-4-21-16-35-41-35" id="af"/><path fill="#333" d="M143 0L79-87 56-68V0H24v-261h32v163l83-92h37l-77 82L181 0h-38" id="ag"/><g id="o"><use transform="matrix(0.04938271604938272,0,0,0.04938271604938272,0,0)" xlink:href="#af"/><use transform="matrix(0.04938271604938272,0,0,0.04938271604938272,8.88888888888889,0)" xlink:href="#aa"/><use transform="matrix(0.04938271604938272,0,0,0.04938271604938272,18.765432098765434,0)" xlink:href="#ab"/><use transform="matrix(0.04938271604938272,0,0,0.04938271604938272,28.641975308641978,0)" xlink:href="#af"/><use transform="matrix(0.04938271604938272,0,0,0.04938271604938272,37.53086419753087,0)" xlink:href="#ag"/></g></defs></g></svg>