<svg xmlns="http://www.w3.org/2000/svg" xmlns:xlink="http://www.w3.org/1999/xlink" xmlns:lucid="lucid" width="1400" height="663.33"><g transform="translate(-80 -100)" lucid:page-tab-id="0_0"><path d="M100 366c0-3.3 2.7-6 6-6h68c3.3 0 6 2.7 6 6v68c0 3.3-2.7 6-6 6h-68c-3.3 0-6-2.7-6-6z" stroke="#000" stroke-width="3" fill="#e5e5e5"/><use xlink:href="#a" transform="matrix(1,0,0,1,112,372) translate(5.1913580246913575 31.77777777777778)"/><path d="M100 206c0-3.3 2.7-6 6-6h68c3.3 0 6 2.7 6 6v68c0 3.3-2.7 6-6 6h-68c-3.3 0-6-2.7-6-6z" stroke="#000" stroke-width="3" fill="#e5e5e5"/><use xlink:href="#a" transform="matrix(1,0,0,1,112,212) translate(5.1913580246913575 31.77777777777778)"/><path d="M100 546c0-3.3 2.7-6 6-6h68c3.3 0 6 2.7 6 6v68c0 3.3-2.7 6-6 6h-68c-3.3 0-6-2.7-6-6z" stroke="#000" stroke-width="3" fill="#e5e5e5"/><use xlink:href="#a" transform="matrix(1,0,0,1,112,552) translate(5.1913580246913575 31.77777777777778)"/><path d="M468 428c-15.46 0-28-12.54-28-28 0-12.37 7.58-22.8 19.35-26.63C458.67 337 505.33 330 524 344c9.33-21 56-14 56 7 28-7 56 21 37.33 56 18.67 28 0 63-37.33 49-9.33 18.2-46.67 18.2-56 0-18.67 14-56 7-56-28z" stroke="#0c7cba" stroke-width="2" fill="#83bbe5"/><use xlink:href="#b" transform="matrix(1,0,0,1,445,335) translate(48.876543209876544 70.99652777777777)"/><path d="M182.5 240.02l5.3.1 5.94.38 5.6.6 5.37.78 5.14.98 4.95 1.16 4.8 1.34 4.68 1.53 4.6 1.7 4.55 1.9 4.52 2.14 4.53 2.36 4.57 2.64 4.65 2.96 4.8 3.33 5 3.8 5.3 4.4 5.76 5.18 6.5 6.4 7.9 8.4 11.9 13.86 34.7 41.93 7.88 8.4 6.5 6.4 5.76 5.18 5.3 4.4 5 3.8 4.8 3.32 4.65 2.96 4.57 2.64 4.53 2.36 4.52 2.13 4.55 1.9 4.6 1.7 4.7 1.54 4.8 1.34 4.94 1.16 5.13.98 4.75.7" stroke="#5e5e5e" stroke-width="2" fill="none"/><path d="M182.55 239.02l-.04 2-1-.02v-2z" fill="#5e5e5e"/><path d="M435.77 399.8l-14.53 3.7.6-9.24z" stroke="#5e5e5e" stroke-width="2" fill="#5e5e5e"/><path d="M182.5 400h238" stroke="#5e5e5e" stroke-width="2" fill="none"/><path d="M182.53 401h-1.03v-2h1.03z" fill="#5e5e5e"/><path d="M435.76 400l-14.26 4.64v-9.28z" stroke="#5e5e5e" stroke-width="2" fill="#5e5e5e"/><path d="M182.5 579.98l4.63-.1 5.32-.33 5.08-.53 4.86-.72 4.68-.9 4.54-1.06 4.43-1.24 4.33-1.4 4.26-1.6 4.22-1.76 4.2-1.98 4.22-2.2 4.24-2.45 4.3-2.73 4.43-3.07 4.56-3.47 4.8-3.95 5.06-4.57 5.5-5.4 6.16-6.55 7.3-8.46 9.83-12.48 43.44-58.5 7.28-8.47 6.16-6.56 5.5-5.4 5.07-4.58 4.8-3.95 4.55-3.47 4.42-3.07 4.3-2.74 4.25-2.46 4.2-2.2 4.2-1.98 4.23-1.77 4.27-1.6 4.33-1.4 4.42-1.24 4.55-1.06 4.68-.9 2.46-.36" stroke="#5e5e5e" stroke-width="2" fill="none"/><path d="M182.55 580.98l-1.05.02v-2l1-.02z" fill="#5e5e5e"/><path d="M435.77 400.23l-13.9 5.66-.66-9.25z" stroke="#5e5e5e" stroke-width="2" fill="#5e5e5e"/><path d="M622.43 400.23l118.07-.2" stroke="#5e5e5e" stroke-width="2" fill="none"/><path d="M622.46 401.23h-1.42l.78-2h.64z" fill="#5e5e5e"/><path d="M755.76 400l-14.25 4.66v-9.27z" stroke="#5e5e5e" stroke-width="2" fill="#5e5e5e"/><path d="M760 346c0-3.3 2.7-6 6-6h148c3.3 0 6 2.7 6 6v108c0 3.3-2.7 6-6 6H766c-3.3 0-6-2.7-6-6z" stroke="#19967d" stroke-width="2" fill="#a3d977"/><use xlink:href="#c" transform="matrix(1,0,0,1,765,345) translate(50.308641975308646 45.27777777777778)"/><use xlink:href="#d" transform="matrix(1,0,0,1,765,345) translate(31.234567901234563 71.94444444444446)"/><path d="M922 400h159.5" stroke="#5e5e5e" stroke-width="2" fill="none"/><path d="M922.03 401H921v-2h1.03z" fill="#5e5e5e"/><path d="M1096.76 400l-14.26 4.64v-9.28z" stroke="#5e5e5e" stroke-width="2" fill="#5e5e5e"/><path d="M1100 399V186c0-3.3 2.7-6 6-6h234.5M1100 398.97V400" stroke="#c92d39" stroke-width="2" fill="none"/><path d="M1355.76 180l-14.26 4.64v-9.28z" stroke="#c92d39" stroke-width="2" fill="#c92d39"/><path d="M1100 399v-53c0-3.3 2.7-6 6-6h234.5M1100 398.97V400" stroke="#c92d39" stroke-width="2" fill="none"/><path d="M1355.76 340l-14.26 4.64v-9.28z" stroke="#c92d39" stroke-width="2" fill="#c92d39"/><path d="M1100 401v93c0 3.3 2.7 6 6 6h234.5M1100 401.03V400" stroke="#c92d39" stroke-width="2" fill="none"/><path d="M1355.76 500l-14.26 4.64v-9.28z" stroke="#c92d39" stroke-width="2" fill="#c92d39"/><path d="M1100 401v252c0 3.3 2.7 6 6 6h234.5M1100 401.03V400" stroke="#c92d39" stroke-width="2" fill="none"/><path d="M1355.76 659l-14.26 4.64v-9.28z" stroke="#c92d39" stroke-width="2" fill="#c92d39"/><path d="M1360 126c0-3.3 2.7-6 6-6h88c3.3 0 6 2.7 6 6v108c0 3.3-2.7 6-6 6h-88c-3.3 0-6-2.7-6-6z" stroke="#c92d39" stroke-width="2" fill="#ff8f80"/><use xlink:href="#e" transform="matrix(1,0,0,1,1365,125) translate(1.7901234567901199 45.27777777777778)"/><use xlink:href="#f" transform="matrix(1,0,0,1,1365,125) translate(12.345679012345684 71.94444444444446)"/><path d="M1360 606c0-3.3 2.7-6 6-6h88c3.3 0 6 2.7 6 6v108c0 3.3-2.7 6-6 6h-88c-3.3 0-6-2.7-6-6z" stroke="#c92d39" stroke-width="2" fill="#ff8f80"/><use xlink:href="#e" transform="matrix(1,0,0,1,1365,605) translate(1.7901234567901199 45.27777777777778)"/><use xlink:href="#f" transform="matrix(1,0,0,1,1365,605) translate(12.345679012345684 71.94444444444446)"/><path d="M1360 446c0-3.3 2.7-6 6-6h88c3.3 0 6 2.7 6 6v108c0 3.3-2.7 6-6 6h-88c-3.3 0-6-2.7-6-6z" stroke="#c92d39" stroke-width="2" fill="#ff8f80"/><use xlink:href="#e" transform="matrix(1,0,0,1,1365,445) translate(1.7901234567901199 45.27777777777778)"/><use xlink:href="#f" transform="matrix(1,0,0,1,1365,445) translate(12.345679012345684 71.94444444444446)"/><path d="M1360 286c0-3.3 2.7-6 6-6h88c3.3 0 6 2.7 6 6v108c0 3.3-2.7 6-6 6h-88c-3.3 0-6-2.7-6-6z" stroke="#c92d39" stroke-width="2" fill="#ff8f80"/><g><use xlink:href="#e" transform="matrix(1,0,0,1,1365,285) translate(1.7901234567901199 45.27777777777778)"/><use xlink:href="#f" transform="matrix(1,0,0,1,1365,285) translate(12.345679012345684 71.94444444444446)"/></g><path d="M660 686c0-3.3 2.7-6 6-6h248c3.3 0 6 2.7 6 6v51.33c0 3.32-2.7 6-6 6H666c-3.3 0-6-2.68-6-6z" stroke="#000" stroke-opacity="0" stroke-width="2" fill="#fff" fill-opacity="0"/><g><use xlink:href="#g" transform="matrix(1,0,0,1,665,685) translate(5.956790123456784 31.27777777777778)"/><use xlink:href="#h" transform="matrix(1,0,0,1,665,685) translate(76.26543209876542 31.27777777777778)"/><use xlink:href="#i" transform="matrix(1,0,0,1,665,685) translate(100.95679012345677 31.27777777777778)"/><use xlink:href="#j" transform="matrix(1,0,0,1,665,685) translate(156.51234567901233 31.27777777777778)"/></g><defs><path d="M197 0v-115H63V0H30v-248h33v105h134v-105h34V0h-34" id="k"/><path d="M100-194c62-1 85 37 85 99 1 63-27 99-86 99S16-35 15-95c0-66 28-99 85-99zM99-20c44 1 53-31 53-75 0-43-8-75-51-75s-53 32-53 75 10 74 51 75" id="l"/><path d="M135-143c-3-34-86-38-87 0 15 53 115 12 119 90S17 21 10-45l28-5c4 36 97 45 98 0-10-56-113-15-118-90-4-57 82-63 122-42 12 7 21 19 24 35" id="m"/><path d="M59-47c-2 24 18 29 38 22v24C64 9 27 4 27-40v-127H5v-23h24l9-43h21v43h35v23H59v120" id="n"/><g id="a"><use transform="matrix(0.06172839506172839,0,0,0.06172839506172839,0,0)" xlink:href="#k"/><use transform="matrix(0.06172839506172839,0,0,0.06172839506172839,15.987654320987653,0)" xlink:href="#l"/><use transform="matrix(0.06172839506172839,0,0,0.06172839506172839,28.333333333333332,0)" xlink:href="#m"/><use transform="matrix(0.06172839506172839,0,0,0.06172839506172839,39.44444444444444,0)" xlink:href="#n"/></g><path d="M33 0v-248h34V0H33" id="o"/><path d="M117-194c89-4 53 116 60 194h-32v-121c0-31-8-49-39-48C34-167 62-67 57 0H25l-1-190h30c1 10-1 24 2 32 11-22 29-35 61-36" id="p"/><path d="M100-194c63 0 86 42 84 106H49c0 40 14 67 53 68 26 1 43-12 49-29l28 8c-11 28-37 45-77 45C44 4 14-33 15-96c1-61 26-98 85-98zm52 81c6-60-76-77-97-28-3 7-6 17-6 28h103" id="q"/><path d="M114-163C36-179 61-72 57 0H25l-1-190h30c1 12-1 29 2 39 6-27 23-49 58-41v29" id="r"/><g id="b"><use transform="matrix(0.06172839506172839,0,0,0.06172839506172839,0,0)" xlink:href="#o"/><use transform="matrix(0.06172839506172839,0,0,0.06172839506172839,6.172839506172839,0)" xlink:href="#p"/><use transform="matrix(0.06172839506172839,0,0,0.06172839506172839,18.51851851851852,0)" xlink:href="#n"/><use transform="matrix(0.06172839506172839,0,0,0.06172839506172839,24.691358024691358,0)" xlink:href="#q"/><use transform="matrix(0.06172839506172839,0,0,0.06172839506172839,37.03703703703704,0)" xlink:href="#r"/><use transform="matrix(0.06172839506172839,0,0,0.06172839506172839,44.382716049382715,0)" xlink:href="#p"/><use transform="matrix(0.06172839506172839,0,0,0.06172839506172839,56.72839506172839,0)" xlink:href="#q"/><use transform="matrix(0.06172839506172839,0,0,0.06172839506172839,69.07407407407408,0)" xlink:href="#n"/></g><path d="M30 0v-248h33v221h125V0H30" id="s"/><path d="M141-36C126-15 110 5 73 4 37 3 15-17 15-53c-1-64 63-63 125-63 3-35-9-54-41-54-24 1-41 7-42 31l-33-3c5-37 33-52 76-52 45 0 72 20 72 64v82c-1 20 7 32 28 27v20c-31 9-61-2-59-35zM48-53c0 20 12 33 32 33 41-3 63-29 60-74-43 2-92-5-92 41" id="t"/><path d="M85-194c31 0 48 13 60 33l-1-100h32l1 261h-30c-2-10 0-23-3-31C134-8 116 4 85 4 32 4 16-35 15-94c0-66 23-100 70-100zm9 24c-40 0-46 34-46 75 0 40 6 74 45 74 42 0 51-32 51-76 0-42-9-74-50-73" id="u"/><g id="c"><use transform="matrix(0.06172839506172839,0,0,0.06172839506172839,0,0)" xlink:href="#s"/><use transform="matrix(0.06172839506172839,0,0,0.06172839506172839,12.345679012345679,0)" xlink:href="#l"/><use transform="matrix(0.06172839506172839,0,0,0.06172839506172839,24.691358024691358,0)" xlink:href="#t"/><use transform="matrix(0.06172839506172839,0,0,0.06172839506172839,37.03703703703704,0)" xlink:href="#u"/></g><path d="M160-131c35 5 61 23 61 61C221 17 115-2 30 0v-248c76 3 177-17 177 60 0 33-19 50-47 57zm-97-11c50-1 110 9 110-42 0-47-63-36-110-37v79zm0 115c55-2 124 14 124-45 0-56-70-42-124-44v89" id="v"/><path d="M24 0v-261h32V0H24" id="w"/><path d="M96-169c-40 0-48 33-48 73s9 75 48 75c24 0 41-14 43-38l32 2c-6 37-31 61-74 61-59 0-76-41-82-99-10-93 101-131 147-64 4 7 5 14 7 22l-32 3c-4-21-16-35-41-35" id="x"/><g id="d"><use transform="matrix(0.06172839506172839,0,0,0.06172839506172839,0,0)" xlink:href="#v"/><use transform="matrix(0.06172839506172839,0,0,0.06172839506172839,14.814814814814813,0)" xlink:href="#t"/><use transform="matrix(0.06172839506172839,0,0,0.06172839506172839,27.160493827160494,0)" xlink:href="#w"/><use transform="matrix(0.06172839506172839,0,0,0.06172839506172839,32.03703703703704,0)" xlink:href="#t"/><use transform="matrix(0.06172839506172839,0,0,0.06172839506172839,44.382716049382715,0)" xlink:href="#p"/><use transform="matrix(0.06172839506172839,0,0,0.06172839506172839,56.72839506172839,0)" xlink:href="#x"/><use transform="matrix(0.06172839506172839,0,0,0.06172839506172839,67.8395061728395,0)" xlink:href="#q"/><use transform="matrix(0.06172839506172839,0,0,0.06172839506172839,80.18518518518519,0)" xlink:href="#r"/></g><path d="M143 0L79-87 56-68V0H24v-261h32v163l83-92h37l-77 82L181 0h-38" id="y"/><g id="e"><use transform="matrix(0.06172839506172839,0,0,0.06172839506172839,0,0)" xlink:href="#v"/><use transform="matrix(0.06172839506172839,0,0,0.06172839506172839,14.814814814814813,0)" xlink:href="#t"/><use transform="matrix(0.06172839506172839,0,0,0.06172839506172839,27.160493827160494,0)" xlink:href="#x"/><use transform="matrix(0.06172839506172839,0,0,0.06172839506172839,38.27160493827161,0)" xlink:href="#y"/><use transform="matrix(0.06172839506172839,0,0,0.06172839506172839,49.38271604938272,0)" xlink:href="#q"/><use transform="matrix(0.06172839506172839,0,0,0.06172839506172839,61.7283950617284,0)" xlink:href="#p"/><use transform="matrix(0.06172839506172839,0,0,0.06172839506172839,74.07407407407408,0)" xlink:href="#u"/></g><path d="M185-189c-5-48-123-54-124 2 14 75 158 14 163 119 3 78-121 87-175 55-17-10-28-26-33-46l33-7c5 56 141 63 141-1 0-78-155-14-162-118-5-82 145-84 179-34 5 7 8 16 11 25" id="z"/><path d="M108 0H70L1-190h34L89-25l56-165h34" id="A"/><g id="f"><use transform="matrix(0.06172839506172839,0,0,0.06172839506172839,0,0)" xlink:href="#z"/><use transform="matrix(0.06172839506172839,0,0,0.06172839506172839,14.814814814814813,0)" xlink:href="#q"/><use transform="matrix(0.06172839506172839,0,0,0.06172839506172839,27.160493827160494,0)" xlink:href="#r"/><use transform="matrix(0.06172839506172839,0,0,0.06172839506172839,34.50617283950617,0)" xlink:href="#A"/><use transform="matrix(0.06172839506172839,0,0,0.06172839506172839,45.61728395061728,0)" xlink:href="#q"/><use transform="matrix(0.06172839506172839,0,0,0.06172839506172839,57.962962962962955,0)" xlink:href="#r"/></g><path d="M232-93c-1 65-40 97-104 97C67 4 28-28 28-90v-158h33c8 89-33 224 67 224 102 0 64-133 71-224h33v155" id="B"/><path d="M177-190C167-65 218 103 67 71c-23-6-38-20-44-43l32-5c15 47 100 32 89-28v-30C133-14 115 1 83 1 29 1 15-40 15-95c0-56 16-97 71-98 29-1 48 16 59 35 1-10 0-23 2-32h30zM94-22c36 0 50-32 50-73 0-42-14-75-50-75-39 0-46 34-46 75s6 73 46 73" id="C"/><g id="g"><use transform="matrix(0.06172839506172839,0,0,0.06172839506172839,0,0)" xlink:href="#B"/><use transform="matrix(0.06172839506172839,0,0,0.06172839506172839,15.987654320987653,0)" xlink:href="#m"/><use transform="matrix(0.06172839506172839,0,0,0.06172839506172839,27.098765432098766,0)" xlink:href="#t"/><use transform="matrix(0.06172839506172839,0,0,0.06172839506172839,39.44444444444444,0)" xlink:href="#C"/><use transform="matrix(0.06172839506172839,0,0,0.06172839506172839,51.79012345679012,0)" xlink:href="#q"/></g><path d="M101-234c-31-9-42 10-38 44h38v23H63V0H32v-167H5v-23h27c-7-52 17-82 69-68v24" id="D"/><g id="h"><use transform="matrix(0.06172839506172839,0,0,0.06172839506172839,0,0)" xlink:href="#l"/><use transform="matrix(0.06172839506172839,0,0,0.06172839506172839,12.345679012345679,0)" xlink:href="#D"/></g><g id="i"><use transform="matrix(0.06172839506172839,0,0,0.06172839506172839,0,0)" xlink:href="#s"/><use transform="matrix(0.06172839506172839,0,0,0.06172839506172839,12.345679012345679,0)" xlink:href="#l"/><use transform="matrix(0.06172839506172839,0,0,0.06172839506172839,24.691358024691358,0)" xlink:href="#t"/><use transform="matrix(0.06172839506172839,0,0,0.06172839506172839,37.03703703703704,0)" xlink:href="#u"/></g><g id="j"><use transform="matrix(0.06172839506172839,0,0,0.06172839506172839,0,0)" xlink:href="#v"/><use transform="matrix(0.06172839506172839,0,0,0.06172839506172839,14.814814814814813,0)" xlink:href="#t"/><use transform="matrix(0.06172839506172839,0,0,0.06172839506172839,27.160493827160494,0)" xlink:href="#w"/><use transform="matrix(0.06172839506172839,0,0,0.06172839506172839,32.03703703703704,0)" xlink:href="#t"/><use transform="matrix(0.06172839506172839,0,0,0.06172839506172839,44.382716049382715,0)" xlink:href="#p"/><use transform="matrix(0.06172839506172839,0,0,0.06172839506172839,56.72839506172839,0)" xlink:href="#x"/><use transform="matrix(0.06172839506172839,0,0,0.06172839506172839,67.8395061728395,0)" xlink:href="#q"/><use transform="matrix(0.06172839506172839,0,0,0.06172839506172839,80.18518518518519,0)" xlink:href="#r"/></g></defs></g></svg>