<svg xmlns="http://www.w3.org/2000/svg" xmlns:xlink="http://www.w3.org/1999/xlink" xmlns:lucid="lucid" width="1002.13" height="220"><g transform="translate(-400 -280)" lucid:page-tab-id="0_0"><path d="M977.13 306c0-3.3 2.7-6 6-6h393c3.32 0 6 2.7 6 6v168c0 3.3-2.68 6-6 6h-393c-3.3 0-6-2.7-6-6z" fill="#fff"/><path d="M994.92 300h7.86m7.86 0h7.86m7.86 0h7.86m7.86 0h7.86m7.86 0h7.86m7.86 0h7.86m7.86 0h7.86m7.86 0h7.86m7.86 0h7.86m7.86 0h7.86m7.86 0h7.86m7.86 0h7.86m7.86 0h7.86m7.86 0h7.86m7.86 0h7.86m7.86 0h7.86m7.86 0h7.86m7.86 0h7.86m7.86 0h7.86m7.86 0h7.86m7.86 0h7.86m7.86 0h7.86m7.86 0h7.86m7.86 0h7.86m7.86 0h3.93l3.03.82 2.15 2.15.83 3.03v3.82m0 7.63v7.64m0 7.63v7.63m0 7.64v7.64m0 7.63v7.64m0 7.65v7.63m0 7.64v7.63m0 7.64v7.63m0 7.63V432m0 7.64v7.63m0 7.64v7.65m0 7.63V474l-.82 3.03-2.14 2.15-3.03.82h-3.93m-7.86 0h-7.86m-7.86 0h-7.86m-7.86 0h-7.86m-7.86 0h-7.86m-7.86 0h-7.86m-7.86 0h-7.86m-7.86 0h-7.86m-7.86 0h-7.86m-7.86 0h-7.86m-7.86 0H1215m-7.86 0h-7.86m-7.86 0h-7.86m-7.86 0h-7.86m-7.86 0h-7.86m-7.86 0h-7.86m-7.86 0h-7.86m-7.86 0h-7.86m-7.86 0h-7.86m-7.86 0h-7.86m-7.86 0h-7.86m-7.86 0h-7.86m-7.86 0h-7.86m-7.86 0h-7.86m-7.86 0h-7.86m-7.86 0h-3.93l-3.02-.82-2.15-2.15-.82-3.03v-3.82m0-7.63v-7.64m0-7.63v-7.63m0-7.64v-7.64m0-7.63v-7.64m0-7.65v-7.63m0-7.64v-7.63m0-7.64v-7.63m0-7.63V348m0-7.64v-7.63m0-7.64v-7.65m0-7.63V306l.82-3.03 2.16-2.15 3.03-.82h3.93" stroke="#5e5e5e" stroke-width="2" fill="none"/><use xlink:href="#a" transform="matrix(1,0,0,1,982.1336940770716,305) translate(150.06172839506172 169.7264625777778)"/><use xlink:href="#b" transform="matrix(1,0,0,1,982.1336940770716,305) translate(172.22222222222223 169.7264625777778)"/><path d="M448 418c-15.46 0-28-12.54-28-28 0-12.37 7.58-22.8 19.35-26.63C438.67 327 485.33 320 504 334c9.33-21 56-14 56 7 28-7 56 21 37.33 56 18.67 28 0 63-37.33 49-9.33 18.2-46.67 18.2-56 0-18.67 14-56 7-56-28z" stroke="#0c7cba" stroke-width="2" fill="#83bbe5"/><use xlink:href="#c" transform="matrix(1,0,0,1,425,325) translate(52.641975308641975 70.99652777777777)"/><path d="M1257.13 336c0-3.3 2.7-6 6-6h88c3.32 0 6 2.7 6 6v108c0 3.3-2.68 6-6 6h-88c-3.3 0-6-2.7-6-6z" stroke="#999" stroke-width="2" fill="#5e5e5e"/><use xlink:href="#d" transform="matrix(1,0,0,1,1262.1336940770716,335) translate(12.345679012345684 59.02777777777778)"/><path d="M1057.13 336c0-3.3 2.7-6 6-6h88c3.32 0 6 2.7 6 6v108c0 3.3-2.68 6-6 6h-88c-3.3 0-6-2.7-6-6z" stroke="#999" stroke-width="2" fill="#5e5e5e"/><use xlink:href="#d" transform="matrix(1,0,0,1,1062.1336940770716,335) translate(12.345679012345684 59.02777777777778)"/><path d="M857.13 336c0-3.3 2.7-6 6-6h88c3.32 0 6 2.7 6 6v108c0 3.3-2.68 6-6 6h-88c-3.3 0-6-2.7-6-6z" stroke="#999" stroke-width="2" fill="#5e5e5e"/><use xlink:href="#d" transform="matrix(1,0,0,1,862.1336940770717,335) translate(12.345679012345684 59.02777777777778)"/><path d="M642.96 391.23h-40.53v-2h40.53zm194.67 0H759.3v-2h78.33z" fill="#5e5e5e"/><path d="M602.46 391.23h-1.42l.78-2h.64zM852.9 390.23l-14.27 4.63v-9.27z" fill="#5e5e5e"/><path d="M856.13 390.23l-18.5 6v-12zm-16.5 3.26l10.03-3.27-10.03-3.26z" fill="#5e5e5e"/><use xlink:href="#e" transform="matrix(1,0,0,1,642.9637483754549,379.56003171226433) translate(0 14.222222222222223)"/><use xlink:href="#f" transform="matrix(1,0,0,1,642.9637483754549,379.56003171226433) translate(71.06172839506175 14.222222222222223)"/><path d="M690.28 411.32h-67.4v-2h67.4zm164.85 0h-84.9v-2h84.9z" fill="#5e5e5e"/><path d="M856.13 411.32h-1.02v-2h1.03zM621.88 414.95l-14.26-4.63 14.26-4.64z" fill="#5e5e5e"/><path d="M622.88 416.33l-18.5-6 18.5-6.02zm-12.03-6l10.03 3.25v-6.52z" fill="#5e5e5e"/><use xlink:href="#g" transform="matrix(1,0,0,1,690.2811491534862,399.65231470254383) translate(0 14.222222222222223)"/><a xlink:href="https://raw.githubusercontent.com/aditya109/system-design/main/assets/smartclient.svg" target="_blank"><path d="M992.13 375h30v30h-30z" fill="none"/><path d="M1007.13 375v30m-15-15h30" stroke="#5e5e5e" stroke-width="4" fill="#5e5e5e"/><path d="M992.13 375h30v30h-30z" fill="none"/><path class="lucid-link lucid-hotspot lucid-overlay-hotspot" d="M992.13 375h30v30h-30zM1007.13 375v30m-15-15h30" fill="none"/><path class="lucid-link lucid-hotspot lucid-overlay-hotspot" d="M992.13 375h30v30h-30z" fill="none"/></a><a xlink:href="https://raw.githubusercontent.com/aditya109/system-design/main/assets/smartclient.svg" target="_blank"><path d="M1192.13 375h30v30h-30z" fill="none"/><path d="M1207.13 375v30m-15-15h30" stroke="#5e5e5e" stroke-width="4" fill="#5e5e5e"/><path d="M1192.13 375h30v30h-30z" fill="none"/><path class="lucid-link lucid-hotspot lucid-overlay-hotspot" d="M1192.13 375h30v30h-30zM1207.13 375v30m-15-15h30" fill="none"/><path class="lucid-link lucid-hotspot lucid-overlay-hotspot" d="M1192.13 375h30v30h-30z" fill="none"/></a><defs><path d="M173 0L80-213 41 0H11l48-248h37l94 214 40-214h30L212 0h-39" id="h"/><use transform="matrix(0.06172839506172839,0,0,0.06172839506172839,0,0)" xlink:href="#h" id="a"/><path d="M135-143c-3-34-86-38-87 0 15 53 115 12 119 90S17 21 10-45l28-5c4 36 97 45 98 0-10-56-113-15-118-90-4-57 82-63 122-42 12 7 21 19 24 35" id="i"/><path d="M100-194c63 0 86 42 84 106H49c0 40 14 67 53 68 26 1 43-12 49-29l28 8c-11 28-37 45-77 45C44 4 14-33 15-96c1-61 26-98 85-98zm52 81c6-60-76-77-97-28-3 7-6 17-6 28h103" id="j"/><path d="M114-163C36-179 61-72 57 0H25l-1-190h30c1 12-1 29 2 39 6-27 23-49 58-41v29" id="k"/><path d="M108 0H70L1-190h34L89-25l56-165h34" id="l"/><g id="b"><use transform="matrix(0.06172839506172839,0,0,0.06172839506172839,0,0)" xlink:href="#i"/><use transform="matrix(0.06172839506172839,0,0,0.06172839506172839,11.11111111111111,0)" xlink:href="#j"/><use transform="matrix(0.06172839506172839,0,0,0.06172839506172839,23.45679012345679,0)" xlink:href="#k"/><use transform="matrix(0.06172839506172839,0,0,0.06172839506172839,30.80246913580247,0)" xlink:href="#l"/><use transform="matrix(0.06172839506172839,0,0,0.06172839506172839,41.91358024691358,0)" xlink:href="#j"/><use transform="matrix(0.06172839506172839,0,0,0.06172839506172839,54.25925925925926,0)" xlink:href="#k"/><use transform="matrix(0.06172839506172839,0,0,0.06172839506172839,61.60493827160494,0)" xlink:href="#i"/></g><path d="M212-179c-10-28-35-45-73-45-59 0-87 40-87 99 0 60 29 101 89 101 43 0 62-24 78-52l27 14C228-24 195 4 139 4 59 4 22-46 18-125c-6-104 99-153 187-111 19 9 31 26 39 46" id="m"/><path d="M24 0v-261h32V0H24" id="n"/><path d="M24-231v-30h32v30H24zM24 0v-190h32V0H24" id="o"/><path d="M117-194c89-4 53 116 60 194h-32v-121c0-31-8-49-39-48C34-167 62-67 57 0H25l-1-190h30c1 10-1 24 2 32 11-22 29-35 61-36" id="p"/><path d="M59-47c-2 24 18 29 38 22v24C64 9 27 4 27-40v-127H5v-23h24l9-43h21v43h35v23H59v120" id="q"/><g id="c"><use transform="matrix(0.06172839506172839,0,0,0.06172839506172839,0,0)" xlink:href="#m"/><use transform="matrix(0.06172839506172839,0,0,0.06172839506172839,15.987654320987653,0)" xlink:href="#n"/><use transform="matrix(0.06172839506172839,0,0,0.06172839506172839,20.864197530864196,0)" xlink:href="#o"/><use transform="matrix(0.06172839506172839,0,0,0.06172839506172839,25.74074074074074,0)" xlink:href="#j"/><use transform="matrix(0.06172839506172839,0,0,0.06172839506172839,38.08641975308642,0)" xlink:href="#p"/><use transform="matrix(0.06172839506172839,0,0,0.06172839506172839,50.432098765432094,0)" xlink:href="#q"/><use transform="matrix(0.06172839506172839,0,0,0.06172839506172839,56.60493827160494,0)" xlink:href="#i"/></g><path fill="#fff" d="M185-189c-5-48-123-54-124 2 14 75 158 14 163 119 3 78-121 87-175 55-17-10-28-26-33-46l33-7c5 56 141 63 141-1 0-78-155-14-162-118-5-82 145-84 179-34 5 7 8 16 11 25" id="r"/><path fill="#fff" d="M100-194c63 0 86 42 84 106H49c0 40 14 67 53 68 26 1 43-12 49-29l28 8c-11 28-37 45-77 45C44 4 14-33 15-96c1-61 26-98 85-98zm52 81c6-60-76-77-97-28-3 7-6 17-6 28h103" id="s"/><path fill="#fff" d="M114-163C36-179 61-72 57 0H25l-1-190h30c1 12-1 29 2 39 6-27 23-49 58-41v29" id="t"/><path fill="#fff" d="M108 0H70L1-190h34L89-25l56-165h34" id="u"/><g id="d"><use transform="matrix(0.06172839506172839,0,0,0.06172839506172839,0,0)" xlink:href="#r"/><use transform="matrix(0.06172839506172839,0,0,0.06172839506172839,14.814814814814813,0)" xlink:href="#s"/><use transform="matrix(0.06172839506172839,0,0,0.06172839506172839,27.160493827160494,0)" xlink:href="#t"/><use transform="matrix(0.06172839506172839,0,0,0.06172839506172839,34.50617283950617,0)" xlink:href="#u"/><use transform="matrix(0.06172839506172839,0,0,0.06172839506172839,45.61728395061728,0)" xlink:href="#s"/><use transform="matrix(0.06172839506172839,0,0,0.06172839506172839,57.962962962962955,0)" xlink:href="#t"/></g><path fill="#333" d="M233-177c-1 41-23 64-60 70L243 0h-38l-65-103H63V0H30v-248c88 3 205-21 203 71zM63-129c60-2 137 13 137-47 0-61-80-42-137-45v92" id="v"/><path fill="#333" d="M100-194c63 0 86 42 84 106H49c0 40 14 67 53 68 26 1 43-12 49-29l28 8c-11 28-37 45-77 45C44 4 14-33 15-96c1-61 26-98 85-98zm52 81c6-60-76-77-97-28-3 7-6 17-6 28h103" id="w"/><path fill="#333" d="M145-31C134-9 116 4 85 4 32 4 16-35 15-94c0-59 17-99 70-100 32-1 48 14 60 33 0-11-1-24 2-32h30l-1 268h-32zM93-21c41 0 51-33 51-76s-8-73-50-73c-40 0-46 35-46 75s5 74 45 74" id="x"/><path fill="#333" d="M84 4C-5 8 30-112 23-190h32v120c0 31 7 50 39 49 72-2 45-101 50-169h31l1 190h-30c-1-10 1-25-2-33-11 22-28 36-60 37" id="y"/><path fill="#333" d="M135-143c-3-34-86-38-87 0 15 53 115 12 119 90S17 21 10-45l28-5c4 36 97 45 98 0-10-56-113-15-118-90-4-57 82-63 122-42 12 7 21 19 24 35" id="z"/><path fill="#333" d="M59-47c-2 24 18 29 38 22v24C64 9 27 4 27-40v-127H5v-23h24l9-43h21v43h35v23H59v120" id="A"/><g id="e"><use transform="matrix(0.04938271604938272,0,0,0.04938271604938272,0,0)" xlink:href="#v"/><use transform="matrix(0.04938271604938272,0,0,0.04938271604938272,12.790123456790125,0)" xlink:href="#w"/><use transform="matrix(0.04938271604938272,0,0,0.04938271604938272,22.66666666666667,0)" xlink:href="#x"/><use transform="matrix(0.04938271604938272,0,0,0.04938271604938272,32.543209876543216,0)" xlink:href="#y"/><use transform="matrix(0.04938271604938272,0,0,0.04938271604938272,42.41975308641976,0)" xlink:href="#w"/><use transform="matrix(0.04938271604938272,0,0,0.04938271604938272,52.2962962962963,0)" xlink:href="#z"/><use transform="matrix(0.04938271604938272,0,0,0.04938271604938272,61.18518518518519,0)" xlink:href="#A"/></g><path fill="#333" d="M87 75C49 33 22-17 22-94c0-76 28-126 65-167h31c-38 41-64 92-64 168S80 34 118 75H87" id="B"/><path fill="#333" d="M24 0v-261h32V0H24" id="C"/><path fill="#333" d="M100-194c62-1 85 37 85 99 1 63-27 99-86 99S16-35 15-95c0-66 28-99 85-99zM99-20c44 1 53-31 53-75 0-43-8-75-51-75s-53 32-53 75 10 74 51 75" id="D"/><path fill="#333" d="M141-36C126-15 110 5 73 4 37 3 15-17 15-53c-1-64 63-63 125-63 3-35-9-54-41-54-24 1-41 7-42 31l-33-3c5-37 33-52 76-52 45 0 72 20 72 64v82c-1 20 7 32 28 27v20c-31 9-61-2-59-35zM48-53c0 20 12 33 32 33 41-3 63-29 60-74-43 2-92-5-92 41" id="E"/><path fill="#333" d="M85-194c31 0 48 13 60 33l-1-100h32l1 261h-30c-2-10 0-23-3-31C134-8 116 4 85 4 32 4 16-35 15-94c0-66 23-100 70-100zm9 24c-40 0-46 34-46 75 0 40 6 74 45 74 42 0 51-32 51-76 0-42-9-74-50-73" id="F"/><path fill="#333" d="M33-261c38 41 65 92 65 168S71 34 33 75H2C39 34 66-17 66-93S39-220 2-261h31" id="G"/><g id="f"><use transform="matrix(0.04938271604938272,0,0,0.04938271604938272,0,0)" xlink:href="#B"/><use transform="matrix(0.04938271604938272,0,0,0.04938271604938272,5.8765432098765435,0)" xlink:href="#C"/><use transform="matrix(0.04938271604938272,0,0,0.04938271604938272,9.777777777777779,0)" xlink:href="#D"/><use transform="matrix(0.04938271604938272,0,0,0.04938271604938272,19.654320987654323,0)" xlink:href="#E"/><use transform="matrix(0.04938271604938272,0,0,0.04938271604938272,29.530864197530867,0)" xlink:href="#F"/><use transform="matrix(0.04938271604938272,0,0,0.04938271604938272,39.40740740740741,0)" xlink:href="#G"/></g><path fill="#333" d="M115-194c55 1 70 41 70 98S169 2 115 4C84 4 66-9 55-30l1 105H24l-1-265h31l2 30c10-21 28-34 59-34zm-8 174c40 0 45-34 45-75s-6-73-45-74c-42 0-51 32-51 76 0 43 10 73 51 73" id="H"/><path fill="#333" d="M117-194c89-4 53 116 60 194h-32v-121c0-31-8-49-39-48C34-167 62-67 57 0H25l-1-190h30c1 10-1 24 2 32 11-22 29-35 61-36" id="I"/><g id="g"><use transform="matrix(0.04938271604938272,0,0,0.04938271604938272,0,0)" xlink:href="#v"/><use transform="matrix(0.04938271604938272,0,0,0.04938271604938272,12.790123456790125,0)" xlink:href="#w"/><use transform="matrix(0.04938271604938272,0,0,0.04938271604938272,22.66666666666667,0)" xlink:href="#z"/><use transform="matrix(0.04938271604938272,0,0,0.04938271604938272,31.555555555555557,0)" xlink:href="#H"/><use transform="matrix(0.04938271604938272,0,0,0.04938271604938272,41.4320987654321,0)" xlink:href="#D"/><use transform="matrix(0.04938271604938272,0,0,0.04938271604938272,51.308641975308646,0)" xlink:href="#I"/><use transform="matrix(0.04938271604938272,0,0,0.04938271604938272,61.18518518518519,0)" xlink:href="#z"/><use transform="matrix(0.04938271604938272,0,0,0.04938271604938272,70.07407407407408,0)" xlink:href="#w"/></g></defs></g></svg>