<svg xmlns="http://www.w3.org/2000/svg" xmlns:xlink="http://www.w3.org/1999/xlink" xmlns:lucid="lucid" width="1200" height="580"><g transform="translate(-100 -260)" lucid:page-tab-id="0_0"><path d="M0 0h1870.4v1323.2H0z" fill="#fff"/><path d="M790.38 436c0-3.3 2.7-6 6-6h41.33c3.33 0 6 2.7 6 6v28c0 3.3-2.67 6-6 6H796.4c-3.3 0-6-2.7-6-6z" stroke="#5e5e5e" stroke-width="2" fill="#fff"/><use xlink:href="#a" transform="matrix(1,0,0,1,802.3809523809525,442) translate(1.4197530864197532 17.77777777777778)"/><path d="M790.7 366c0-3.3 2.7-6 6-6h41.35c3.3 0 6 2.7 6 6v28c0 3.3-2.7 6-6 6H796.7c-3.3 0-6-2.7-6-6z" stroke="#5e5e5e" stroke-width="2" fill="#fff"/><use xlink:href="#b" transform="matrix(1,0,0,1,802.7142857142859,372) translate(1.4197530864197532 17.77777777777778)"/><path d="M791.05 296c0-3.3 2.68-6 6-6h41.33c3.3 0 6 2.7 6 6v28c0 3.3-2.7 6-6 6h-41.33c-3.32 0-6-2.7-6-6z" stroke="#5e5e5e" stroke-width="2" fill="#fff"/><use xlink:href="#c" transform="matrix(1,0,0,1,803.0476190476193,302) translate(1.4197530864197532 17.77777777777778)"/><path d="M790.05 506c0-3.3 2.68-6 6-6h41.33c3.3 0 6 2.7 6 6v28c0 3.3-2.7 6-6 6h-41.33c-3.32 0-6-2.7-6-6z" stroke="#5e5e5e" stroke-width="2" fill="#fff"/><use xlink:href="#d" transform="matrix(1,0,0,1,802.0476190476192,512) translate(1.4197530864197532 17.77777777777778)"/><path d="M789.7 576c0-3.3 2.7-6 6-6h41.35c3.3 0 6 2.7 6 6v28c0 3.3-2.7 6-6 6H795.7c-3.3 0-6-2.7-6-6z" stroke="#5e5e5e" stroke-width="2" fill="#fff"/><use xlink:href="#e" transform="matrix(1,0,0,1,801.7142857142858,582) translate(1.4197530864197532 17.77777777777778)"/><path d="M144.84 422.7l14.5 9.85v2.66c0 6.98-6.5 12.64-14.5 12.64s-14.5-5.66-14.5-12.63v-2.65zM153.1 451.34c9.2 0 16.6 4.85 16.6 12.72V480h-9.53V468.8h-1.64V480h-27.05V468.8h-1.64V480H120v-15.94c0-7.87 7.4-12.72 16.6-12.72z" fill="#7d7c7c"/><path d="M144.83 420c7.95.05 14.34 5.7 14.3 12.63-.07 6.9-6.58 12.48-14.53 12.43-7.9-.05-14.26-5.62-14.28-12.5 0-6.95 6.5-12.56 14.48-12.56h.03zM153.1 448.68c9.2 0 16.6 4.84 16.6 12.72v15.93h-9.53v-11.2h-1.64v11.2h-27.05v-11.2h-1.64v11.2H120V461.4c0-7.88 7.4-12.72 16.6-12.72z" fill="#d2d3d3"/><use xlink:href="#f" transform="matrix(1,0,0,1,120,480) translate(3.4259259259259274 17.77777777777778)"/><path d="M378.32 456.04l-24.36-24.36c-1.08-1.08-2.4-1.68-3.96-1.68-1.44 0-2.88.6-3.96 1.68l-24.36 24.36c-1.08 1.08-1.68 2.4-1.68 3.96 0 1.44.6 2.88 1.68 3.96l24.36 24.36c1.08 1.08 2.4 1.68 3.96 1.68 1.44 0 2.88-.6 3.96-1.68l24.36-24.36c1.08-1.08 1.68-2.4 1.68-3.96-.12-1.56-.72-3-1.68-3.96zm-11.58 11.4v-5.52h-8.4c-.84 2.88-3.06 5.16-5.94 5.94v5.64c1.2.84 3 2.76 3 4.8 0 3-2.4 5.34-5.4 5.34-3 0-5.4-2.34-5.4-5.34 0-2.16 1.8-3.96 3-4.8v-5.52c-2.88-.78-5.1-3.06-5.94-5.94h-8.4v5.58l-7.86-7.86 7.86-7.86v5.46h8.4c.84-2.88 3.06-5.1 5.94-5.94v-8.04h-5.46l7.86-7.86 7.86 7.86h-5.46v8.04c2.88.84 5.1 3.06 5.94 5.94h8.4v-5.58l7.86 7.86-7.86 7.8z" stroke="#000" stroke-opacity="0" fill="#0078d7"/><path d="M350 453.16c-3.48 0-6.36 2.88-6.36 6.36 0 3.48 2.88 6.36 6.36 6.36 3.48 0 6.36-2.88 6.36-6.36 0-3.48-2.88-6.36-6.36-6.36z" stroke="#000" stroke-opacity="0" fill="#0078d7"/><use xlink:href="#g" transform="matrix(1,0,0,1,290,499) translate(2.049999999999997 14.4)"/><use xlink:href="#h" transform="matrix(1,0,0,1,290,499) translate(47.05 14.4)"/><path d="M170.54 460H301.5" stroke="#5e5e5e" stroke-width="2" fill="none"/><path d="M170.56 461h-.9l-.25-2h1.16z" fill="#5e5e5e"/><path d="M316.76 460l-14.26 4.64v-9.28z" stroke="#5e5e5e" stroke-width="2" fill="#5e5e5e"/><path d="M580 460c0 7.36-5.97 13.33-13.33 13.33-7.37 0-13.34-5.97-13.34-13.33s5.97-13.33 13.34-13.33c7.36 0 13.33 5.97 13.33 13.33z" stroke="#5e5e5e" stroke-width="2" fill="#fff"/><path d="M381 460h152.82" stroke="#5e5e5e" stroke-width="2" fill="none"/><path d="M381.03 461h-1.23l.2-1-.24-1h1.27z" fill="#5e5e5e"/><path d="M549.1 460l-14.28 4.64v-9.28z" stroke="#5e5e5e" stroke-width="2" fill="#5e5e5e"/><path d="M843.05 426c0-3.3 2.68-6 6-6h14.66c3.33 0 6 2.7 6 6v9.46c0 3.3-2.67 6-6 6h-14.65c-3.32 0-6-2.7-6-6z" stroke="#000" stroke-opacity="0" stroke-width="2" fill="#fff" fill-opacity="0"/><use xlink:href="#i" transform="matrix(1,0,0,1,848.0476190476192,425) translate(-1.4166666666666643 12.444444444444443)"/><path d="M840 366c0-3.3 2.7-6 6-6h28c3.3 0 6 2.7 6 6v20.18c0 3.32-2.7 6-6 6h-28c-3.3 0-6-2.68-6-6z" stroke="#000" stroke-opacity="0" stroke-width="2" fill="#fff" fill-opacity="0"/><use xlink:href="#j" transform="matrix(1,0,0,1,845,365) translate(5.083333333333336 15.319444444444443)"/><path d="M843.05 286c0-3.3 2.68-6 6-6h17.65c3.32 0 6 2.7 6 6v11.86c0 3.32-2.68 6-6 6h-17.65c-3.32 0-6-2.68-6-6z" stroke="#000" stroke-opacity="0" stroke-width="2" fill="#fff" fill-opacity="0"/><use xlink:href="#k" transform="matrix(1,0,0,1,848.0476190476192,285) translate(0.0833333333333357 12.444444444444443)"/><path d="M843.7 496c0-3.3 2.7-6 6-6h17.67c3.32 0 6 2.7 6 6v11.86c0 3.32-2.68 6-6 6H849.7c-3.3 0-6-2.68-6-6z" stroke="#000" stroke-opacity="0" stroke-width="2" fill="#fff" fill-opacity="0"/><use xlink:href="#l" transform="matrix(1,0,0,1,848.7142857142859,495) translate(0.0833333333333357 12.444444444444443)"/><path d="M840 566c0-3.3 2.7-6 6-6h12.86c3.3 0 6 2.7 6 6v8c0 3.3-2.7 6-6 6H846c-3.3 0-6-2.7-6-6z" stroke="#000" stroke-opacity="0" stroke-width="2" fill="#fff" fill-opacity="0"/><use xlink:href="#m" transform="matrix(1,0,0,1,845,565) translate(-2.4166666666666643 12.444444444444443)"/><path d="M940 706c0-3.3 2.7-6 6-6h148c3.3 0 6 2.7 6 6v108c0 3.3-2.7 6-6 6H946c-3.3 0-6-2.7-6-6z" stroke="#5e5e5e" stroke-width="2" fill="#fff"/><use xlink:href="#n" transform="matrix(1,0,0,1,952,712) translate(14.975308641975303 53.77777777777778)"/><path d="M582 459.98l3.46-.07 4.22-.26 4.03-.42 3.88-.57 3.73-.7 3.62-.86 3.53-1 3.45-1.12 3.4-1.26 3.37-1.42 3.36-1.58 3.36-1.76 3.38-1.95 3.44-2.18 3.53-2.45 3.63-2.76 3.8-3.14 4.02-3.62 4.34-4.25 4.8-5.14 5.6-6.5 7.15-9.04 40-54.9 5.6-6.48 4.8-5.13 4.35-4.24 4.02-3.62 3.8-3.15 3.64-2.77 3.53-2.45 3.44-2.2 3.4-1.94 3.36-1.76 3.35-1.58 3.37-1.42 3.4-1.26 3.46-1.13 3.53-1 3.62-.84 1.9-.36" stroke="#5e5e5e" stroke-width="2" fill="none"/><path d="M582.06 460.98l-1.18.02.13-1-.12-1 1.14-.02z" fill="#5e5e5e"/><path d="M786.83 310.3l-13.78 5.93-.86-9.24z" stroke="#5e5e5e" stroke-width="2" fill="#5e5e5e"/><path d="M582 459.98l7.13-.15 7.36-.46 6.75-.7 6.26-.93 5.9-1.12 5.55-1.3 5.32-1.5 5.15-1.66 5.05-1.88 5.02-2.1 5.08-2.4 5.27-2.76 5.66-3.27 6.45-4.1 8.48-5.9 34.35-25.4 6.44-4.1 5.65-3.27 5.27-2.75 5.1-2.4 5-2.1 5.06-1.9 5.15-1.66 5.33-1.5 5.56-1.3 5.87-1.1 6.27-.93 3.77-.4" stroke="#5e5e5e" stroke-width="2" fill="none"/><path d="M582.06 460.98l-1.18.02.13-1-.12-1 1.14-.02z" fill="#5e5e5e"/><path d="M786.48 380.16l-14 5.36-.48-9.26z" stroke="#5e5e5e" stroke-width="2" fill="#5e5e5e"/><path d="M582 459.98l47.87-.9 34.7-2.2 75.95-5.96 30.36-.57" stroke="#5e5e5e" stroke-width="2" fill="none"/><path d="M582.06 460.98l-1.18.02.13-1-.12-1 1.14-.02z" fill="#5e5e5e"/><path d="M786.15 450.06l-14.18 4.9-.17-9.27z" stroke="#5e5e5e" stroke-width="2" fill="#5e5e5e"/><path d="M582 460.02l9.6.2 9.3.58 8.35.87 7.6 1.12 7.03 1.33 6.62 1.56 6.34 1.76 6.22 2 6.24 2.34 6.54 2.75 7.3 3.44 9.7 5.08L706.9 502l7.32 3.45 6.53 2.75 6.25 2.33 6.2 2 6.35 1.78 6.62 1.57 7.04 1.34 7.6 1.13 8.35.87 1.4.1" stroke="#5e5e5e" stroke-width="2" fill="none"/><path d="M582.06 459.02l-.04 2-1.14-.02.13-1-.12-1z" fill="#5e5e5e"/><path d="M785.8 519.88l-14.42 4.08.36-9.26z" stroke="#5e5e5e" stroke-width="2" fill="#5e5e5e"/><path d="M582 460.02l3.9.08 4.6.3 4.4.45 4.17.62 4.02.76 3.87.9 3.76 1.06 3.68 1.2 3.63 1.34 3.58 1.5 3.57 1.67 3.56 1.88 3.6 2.07 3.65 2.32 3.75 2.6 3.9 2.98 4.12 3.4 4.43 4 4.9 4.8 5.75 6.13 7.53 8.75 36.54 45.44 5.73 6.12 4.9 4.8 4.44 4 4.12 3.4 3.9 2.97 3.75 2.6 3.65 2.33 3.6 2.08 3.56 1.86 3.55 1.67 3.6 1.52 3.6 1.34 3.7 1.2 3.76 1.05 3.88.92 3.66.7" stroke="#5e5e5e" stroke-width="2" fill="none"/><path d="M582.06 459.02l-.04 2-1.14-.02.13-1-.12-1z" fill="#5e5e5e"/><path d="M785.5 594.08l-14.6 3.44.76-9.24z" stroke="#5e5e5e" stroke-width="2" fill="#5e5e5e"/><path d="M939 759.98c0 .55-.45 1-1 1-.56 0-1-.45-1-1s.44-1 1-1c.55 0 1 .45 1 1zm-4-.08c0 .55-.44 1-1 1-.55 0-1-.45-1-1 0-.56.45-1 1-1 .56 0 1 .44 1 1zm-3.98-.14c0 .55-.45 1-1 1-.56 0-1-.45-1-1 0-.56.44-1 1-1 .55 0 1 .44 1 1zm-4-.25c0 .56-.44 1-1 1-.54 0-1-.44-1-1 0-.55.46-1 1-1 .56 0 1 .45 1 1zm-3.96-.34c0 .55-.45 1-1 1-.56 0-1-.45-1-1 0-.56.44-1 1-1 .55 0 1 .44 1 1zm-3.97-.42c0 .55-.46 1-1 1-.57 0-1-.45-1-1s.43-1 1-1c.54 0 1 .45 1 1zm-3.96-.58c0 .55-.45 1-1 1-.56 0-1-.45-1-1 0-.56.44-1 1-1 .55 0 1 .44 1 1zm-3.94-.67c0 .54-.45 1-1 1s-1-.46-1-1c0-.56.45-1 1-1s1 .44 1 1zm-3.92-.78c0 .55-.44 1-1 1-.55 0-1-.45-1-1s.45-1 1-1c.56 0 1 .45 1 1zm-3.88-.9c0 .54-.45 1-1 1s-1-.46-1-1c0-.56.45-1 1-1s1 .44 1 1zm-3.86-1.05c0 .55-.44 1-1 1-.55 0-1-.45-1-1s.45-1 1-1c.56 0 1 .45 1 1zm-3.8-1.17c0 .56-.46 1-1 1-.56 0-1-.44-1-1 0-.55.44-1 1-1 .54 0 1 .45 1 1zm-3.8-1.3c0 .56-.44 1-1 1-.54 0-1-.44-1-1 0-.54.46-1 1-1 .56 0 1 .46 1 1zm-3.7-1.42c0 .55-.46 1-1 1-.57 0-1-.45-1-1s.43-1 1-1c.54 0 1 .45 1 1zm-3.7-1.57c0 .56-.43 1-1 1-.54 0-1-.44-1-1 0-.54.46-1 1-1 .57 0 1 .46 1 1zm-3.6-1.7c0 .55-.44 1-1 1-.54 0-1-.45-1-1s.46-1 1-1c.56 0 1 .45 1 1zm-3.53-1.85c0 .55-.43 1-1 1-.54 0-1-.45-1-1 0-.56.46-1 1-1 .57 0 1 .44 1 1zm-3.44-2c0 .55-.45 1-1 1-.56 0-1-.45-1-1s.44-1 1-1c.55 0 1 .45 1 1zm-3.37-2.14c0 .56-.46 1-1 1-.57 0-1-.44-1-1 0-.54.43-1 1-1 .54 0 1 .46 1 1zm-3.3-2.26c0 .55-.44 1-1 1-.55 0-1-.45-1-1 0-.56.45-1 1-1 .56 0 1 .44 1 1zm-3.18-2.4c0 .54-.44 1-1 1-.55 0-1-.46-1-1 0-.57.45-1 1-1 .56 0 1 .43 1 1zm-3.08-2.55c0 .54-.44 1-1 1-.55 0-1-.46-1-1 0-.57.45-1 1-1 .56 0 1 .43 1 1zm-2.97-2.68c0 .55-.45 1-1 1s-1-.45-1-1 .45-1 1-1 1 .45 1 1zm-2.86-2.78c0 .55-.44 1-1 1-.54 0-1-.45-1-1s.46-1 1-1c.56 0 1 .45 1 1zm-2.74-2.9c0 .56-.45 1-1 1s-1-.44-1-1c0-.55.45-1 1-1s1 .45 1 1zm-2.63-3c0 .56-.45 1-1 1s-1-.44-1-1c0-.55.45-1 1-1s1 .45 1 1zm-2.52-3.1c0 .56-.44 1-1 1-.54 0-1-.44-1-1 0-.54.46-1 1-1 .56 0 1 .46 1 1zm-2.4-3.17c0 .55-.45 1-1 1s-1-.45-1-1c0-.56.45-1 1-1s1 .44 1 1zm-2.3-3.27c0 .55-.44 1-1 1-.55 0-1-.45-1-1s.45-1 1-1c.56 0 1 .45 1 1zm-2.2-3.33c0 .55-.44 1-1 1-.54 0-1-.45-1-1s.46-1 1-1c.56 0 1 .45 1 1zm-2.06-3.42c0 .56-.44 1-1 1-.55 0-1-.44-1-1 0-.55.45-1 1-1 .56 0 1 .45 1 1zm-1.95-3.48c0 .56-.46 1-1 1-.56 0-1-.44-1-1 0-.55.44-1 1-1 .54 0 1 .45 1 1zm-1.88-3.52c0 .55-.45 1-1 1s-1-.45-1-1c0-.56.45-1 1-1s1 .44 1 1zm-1.77-3.58c0 .55-.45 1-1 1-.56 0-1-.45-1-1s.44-1 1-1c.55 0 1 .45 1 1zm-1.65-3.64c0 .56-.45 1-1 1s-1-.44-1-1c0-.55.45-1 1-1s1 .45 1 1zm-1.6-3.66c0 .56-.44 1-1 1-.54 0-1-.44-1-1 0-.55.46-1 1-1 .56 0 1 .45 1 1zm-1.46-3.7c0 .54-.45 1-1 1s-1-.46-1-1c0-.56.45-1 1-1s1 .44 1 1zm-1.4-3.74c0 .55-.45 1-1 1s-1-.45-1-1c0-.56.45-1 1-1s1 .44 1 1zm-1.3-3.78c0 .56-.46 1-1 1-.57 0-1-.44-1-1 0-.55.43-1 1-1 .54 0 1 .45 1 1zm-1.26-3.8c0 .56-.44 1-1 1-.55 0-1-.44-1-1 0-.54.45-1 1-1 .56 0 1 .46 1 1zm-1.15-3.8c0 .54-.45 1-1 1s-1-.46-1-1c0-.56.45-1 1-1s1 .44 1 1zm-1.1-3.84c0 .56-.46 1-1 1-.57 0-1-.44-1-1 0-.54.43-1 1-1 .54 0 1 .46 1 1zm-1-3.86c0 .55-.45 1-1 1-.56 0-1-.45-1-1s.44-1 1-1c.55 0 1 .45 1 1zm-1-3.87c0 .56-.44 1-1 1-.55 0-1-.44-1-1 0-.55.45-1 1-1 .56 0 1 .45 1 1zm-.87-3.9c0 .56-.45 1-1 1s-1-.44-1-1c0-.54.45-1 1-1s1 .46 1 1zm-.83-3.9c0 .56-.44 1-1 1-.55 0-1-.44-1-1 0-.55.45-1 1-1 .56 0 1 .45 1 1zm-.82-3.9c0 .55-.44 1-1 1-.55 0-1-.45-1-1s.45-1 1-1c.56 0 1 .45 1 1zm-.68-3.93c0 .55-.45 1-1 1s-1-.45-1-1c0-.56.45-1 1-1s1 .44 1 1zm-.66-3.94c0 .55-.45 1-1 1-.56 0-1-.45-1-1s.44-1 1-1c.55 0 1 .45 1 1zm-.67-3.94c0 .56-.46 1-1 1-.56 0-1-.44-1-1 0-.55.44-1 1-1 .54 0 1 .45 1 1zm-.6-3.94c0 .55-.44 1-1 1-.54 0-1-.45-1-1 0-.56.46-1 1-1 .56 0 1 .44 1 1zm-.5-3.96c0 .55-.44 1-1 1-.54 0-1-.45-1-1 0-.56.46-1 1-1 .56 0 1 .44 1 1zm-.5-3.97c0 .55-.43 1-1 1-.54 0-1-.45-1-1 0-.56.46-1 1-1 .57 0 1 .44 1 1zm-.48-3.97c0 .56-.45 1-1 1-.56 0-1-.44-1-1 0-.55.44-1 1-1 .55 0 1 .45 1 1zm-.43-3.97c0 .56-.46 1-1 1-.56 0-1-.44-1-1 0-.55.44-1 1-1 .54 0 1 .45 1 1zm-.34-3.97c0 .54-.45 1-1 1s-1-.46-1-1c0-.57.45-1 1-1s1 .43 1 1zm-.33-4c0 .56-.45 1-1 1s-1-.44-1-1c0-.54.45-1 1-1s1 .46 1 1zm-.33-3.97c0 .55-.45 1-1 1s-1-.45-1-1 .45-1 1-1 1 .45 1 1zm-.33-3.98c0 .55-.45 1-1 1s-1-.45-1-1 .45-1 1-1 1 .45 1 1zm-.26-3.98c0 .55-.44 1-1 1-.54 0-1-.45-1-1s.46-1 1-1c.56 0 1 .45 1 1zm-.15-4c0 .56-.45 1-1 1-.56 0-1-.44-1-1 0-.54.44-1 1-1 .55 0 1 .46 1 1zm-.17-3.98c0 .54-.44 1-1 1-.55 0-1-.46-1-1 0-.56.45-1 1-1 .56 0 1 .44 1 1zm-.16-4c0 .56-.45 1-1 1s-1-.44-1-1c0-.55.45-1 1-1s1 .45 1 1zm-.16-3.98c0 .55-.45 1-1 1s-1-.45-1-1c0-.56.45-1 1-1s1 .44 1 1zm-.16-4c0 .56-.45 1-1 1-.56 0-1-.44-1-1 0-.55.44-1 1-1 .55 0 1 .45 1 1zm-.17-3.98c0 .55-.44 1-1 1-.55 0-1-.45-1-1s.45-1 1-1c.56 0 1 .45 1 1zm-.02-4c0 .56-.44 1-1 1-.54 0-1-.44-1-1 0-.55.46-1 1-1 .56 0 1 .45 1 1zm.02-4c0 .57-.45 1-1 1-.56 0-1-.43-1-1 0-.54.44-1 1-1 .55 0 1 .46 1 1zm0-3.98c0 .55-.44 1-1 1-.55 0-1-.45-1-1s.45-1 1-1c.56 0 1 .45 1 1zm0-4c0 .56-.44 1-1 1-.54 0-1-.44-1-1 0-.54.46-1 1-1 .56 0 1 .46 1 1zm.02-3.98c0 .55-.45 1-1 1-.56 0-1-.45-1-1s.44-1 1-1c.55 0 1 .45 1 1zm0-4c0 .56-.44 1-1 1-.55 0-1-.44-1-1 0-.55.45-1 1-1 .56 0 1 .45 1 1zm0-4c0 .57-.44 1-1 1-.54 0-1-.43-1-1 0-.54.46-1 1-1 .56 0 1 .46 1 1zm.02-3.98c0 .56-.45 1-1 1s-1-.44-1-1c0-.55.45-1 1-1s1 .45 1 1zm0-4c0 .56-.44 1-1 1-.55 0-1-.44-1-1 0-.54.45-1 1-1 .56 0 1 .46 1 1zm.03-3.98c0 .55-.46 1-1 1-.56 0-1-.45-1-1s.44-1 1-1c.54 0 1 .45 1 1zm.16-4c0 .56-.45 1-1 1-.56 0-1-.44-1-1 0-.54.44-1 1-1 .55 0 1 .46 1 1zm.16-3.98c0 .55-.44 1-1 1-.55 0-1-.45-1-1s.45-1 1-1c.56 0 1 .45 1 1zm.17-4c0 .57-.46 1-1 1-.56 0-1-.43-1-1 0-.54.44-1 1-1 .54 0 1 .46 1 1zm.16-3.97c0 .55-.45 1-1 1s-1-.45-1-1c0-.56.45-1 1-1s1 .44 1 1zm.17-4c0 .56-.45 1-1 1-.56 0-1-.44-1-1 0-.54.44-1 1-1 .55 0 1 .46 1 1zm.16-3.98c0 .54-.45 1-1 1-.56 0-1-.46-1-1 0-.56.44-1 1-1 .55 0 1 .44 1 1zm.16-4c0 .55-.45 1-1 1s-1-.45-1-1 .45-1 1-1 1 .45 1 1zm.17-4c0 .56-.45 1-1 1s-1-.44-1-1c0-.54.45-1 1-1s1 .46 1 1zm.17-3.98c0 .56-.45 1-1 1s-1-.44-1-1c0-.55.45-1 1-1s1 .45 1 1zm.17-3.98c0 .55-.45 1-1 1-.56 0-1-.45-1-1 0-.56.44-1 1-1 .55 0 1 .44 1 1zm.16-4c0 .56-.44 1-1 1-.55 0-1-.44-1-1 0-.55.45-1 1-1 .56 0 1 .45 1 1zm.17-3.98c0 .55-.45 1-1 1s-1-.45-1-1 .45-1 1-1 1 .45 1 1zm.17-4c0 .56-.45 1-1 1s-1-.44-1-1c0-.54.45-1 1-1s1 .46 1 1zm.17-3.98c0 .55-.45 1-1 1-.56 0-1-.45-1-1s.44-1 1-1c.55 0 1 .45 1 1zm.16-4c0 .57-.44 1-1 1-.55 0-1-.43-1-1 0-.54.45-1 1-1 .56 0 1 .46 1 1zm.17-3.98c0 .56-.45 1-1 1s-1-.44-1-1c0-.55.45-1 1-1s1 .45 1 1zm.17-3.98c0 .55-.45 1-1 1s-1-.45-1-1c0-.56.45-1 1-1s1 .44 1 1zm.17-4c0 .56-.44 1-1 1-.55 0-1-.44-1-1 0-.54.45-1 1-1 .56 0 1 .46 1 1zm.17-3.98c0 .55-.44 1-1 1-.55 0-1-.45-1-1s.45-1 1-1c.56 0 1 .45 1 1zm.17-4c0 .56-.45 1-1 1s-1-.44-1-1c0-.54.45-1 1-1s1 .46 1 1zm.17-3.98c0 .56-.44 1-1 1-.54 0-1-.44-1-1 0-.55.46-1 1-1 .56 0 1 .45 1 1zm.18-4c0 .57-.45 1-1 1-.56 0-1-.43-1-1 0-.54.44-1 1-1 .55 0 1 .46 1 1zm.16-3.97c0 .54-.44 1-1 1-.55 0-1-.46-1-1 0-.57.45-1 1-1 .56 0 1 .43 1 1zm.17-4c0 .55-.44 1-1 1-.54 0-1-.45-1-1s.46-1 1-1c.56 0 1 .45 1 1zm.18-4c0 .56-.45 1-1 1s-1-.44-1-1c0-.54.45-1 1-1s1 .46 1 1zm.17-3.98c0 .55-.45 1-1 1s-1-.45-1-1 .45-1 1-1 1 .45 1 1zm.17-4c0 .56-.45 1-1 1-.56 0-1-.44-1-1 0-.54.44-1 1-1 .55 0 1 .46 1 1zm.16-3.98c0 .56-.44 1-1 1-.55 0-1-.44-1-1 0-.55.45-1 1-1 .56 0 1 .45 1 1zm.17-3.98c0 .55-.45 1-1 1s-1-.45-1-1c0-.56.45-1 1-1s1 .44 1 1zm.17-4c0 .56-.45 1-1 1s-1-.44-1-1c0-.55.45-1 1-1s1 .45 1 1zm.17-3.98c0 .55-.46 1-1 1-.57 0-1-.45-1-1s.43-1 1-1c.54 0 1 .45 1 1zm.15-4c0 .56-.44 1-1 1-.55 0-1-.44-1-1 0-.54.45-1 1-1 .56 0 1 .46 1 1zm.17-3.98c0 .55-.45 1-1 1s-1-.45-1-1 .45-1 1-1 1 .45 1 1zm.17-4c0 .57-.46 1-1 1-.56 0-1-.43-1-1 0-.54.44-1 1-1 .54 0 1 .46 1 1zm.16-3.97c0 .55-.45 1-1 1-.56 0-1-.45-1-1 0-.56.44-1 1-1 .55 0 1 .44 1 1zm.16-4c0 .56-.44 1-1 1-.55 0-1-.44-1-1 0-.55.45-1 1-1 .56 0 1 .45 1 1zm.17-3.98c0 .55-.46 1-1 1-.56 0-1-.45-1-1s.44-1 1-1c.54 0 1 .45 1 1zm.16-4c0 .56-.45 1-1 1s-1-.44-1-1c0-.54.45-1 1-1s1 .46 1 1zm.17-3.98c0 .55-.45 1-1 1s-1-.45-1-1 .45-1 1-1 1 .45 1 1zm.17-4c0 .57-.45 1-1 1-.56 0-1-.43-1-1 0-.54.44-1 1-1 .55 0 1 .46 1 1zm.16-3.98c0 .55-.44 1-1 1-.55 0-1-.45-1-1 0-.56.45-1 1-1 .56 0 1 .44 1 1zm.17-4c0 .56-.45 1-1 1s-1-.44-1-1c0-.55.45-1 1-1s1 .45 1 1zm.17-3.98c0 .55-.45 1-1 1s-1-.45-1-1 .45-1 1-1 1 .45 1 1zm.17-4c0 .56-.45 1-1 1-.56 0-1-.44-1-1 0-.54.44-1 1-1 .55 0 1 .46 1 1zm.16-3.98c0 .55-.44 1-1 1-.55 0-1-.45-1-1s.45-1 1-1c.56 0 1 .45 1 1zm.17-4c0 .57-.45 1-1 1s-1-.43-1-1c0-.54.45-1 1-1s1 .46 1 1zm.17-3.98c0 .56-.45 1-1 1s-1-.44-1-1c0-.55.45-1 1-1s1 .45 1 1zm.17-3.98c0 .55-.45 1-1 1-.56 0-1-.45-1-1 0-.56.44-1 1-1 .55 0 1 .44 1 1zm.16-4c0 .56-.44 1-1 1-.55 0-1-.44-1-1 0-.54.45-1 1-1 .56 0 1 .46 1 1z" fill="#5e5e5e"/><path d="M939 759v2l-1.05-.02.04-2zM818.67 332.07l-2-.1.04-.97h2.02z" fill="#5e5e5e"/><path d="M1078.32 426.77l-24.36-24.36c-1.08-1.07-2.4-1.67-3.96-1.67-1.44 0-2.88.6-3.96 1.68l-24.36 24.37c-1.08 1.08-1.68 2.4-1.68 3.96 0 1.44.6 2.88 1.68 3.96l24.36 24.35c1.08 1.08 2.4 1.68 3.96 1.68 1.44 0 2.88-.6 3.96-1.68l24.36-24.36c1.08-1.1 1.68-2.4 1.68-3.97-.12-1.56-.72-3-1.68-3.96zm-11.58 11.4v-5.52h-8.4c-.84 2.88-3.06 5.16-5.94 5.94v5.63c1.2.84 3 2.76 3 4.8 0 3-2.4 5.34-5.4 5.34-3 0-5.4-2.34-5.4-5.34 0-2.16 1.8-3.96 3-4.8v-5.52c-2.88-.77-5.1-3.05-5.94-5.93h-8.4v5.58l-7.86-7.86 7.86-7.87v5.46h8.4c.84-2.9 3.06-5.1 5.94-5.95v-8.04h-5.46l7.86-7.85 7.86 7.86h-5.46v8.05c2.88.84 5.1 3.06 5.94 5.94h8.4v-5.6l7.86 7.87-7.86 7.8z" stroke="#000" stroke-opacity="0" fill="#0078d7"/><path d="M1050 423.9c-3.48 0-6.36 2.87-6.36 6.35 0 3.48 2.88 6.36 6.36 6.36 3.48 0 6.36-2.87 6.36-6.35 0-3.48-2.88-6.36-6.36-6.36z" stroke="#000" stroke-opacity="0" fill="#0078d7"/><use xlink:href="#g" transform="matrix(1,0,0,1,990,469.727969348659) translate(2.049999999999997 14.4)"/><use xlink:href="#h" transform="matrix(1,0,0,1,990,469.727969348659) translate(47.05 14.4)"/><path d="M846.38 310.02l2.86.06 3.65.23 3.46.37 3.33.5 3.2.6 3.1.73 3.03.85 2.95.96 2.92 1.1 2.88 1.2 2.87 1.36 2.87 1.5 2.9 1.67 2.95 1.87 3 2.1 3.13 2.37 3.27 2.7 3.47 3.14 3.78 3.7 4.25 4.54 5.08 5.9 7.08 8.96 27.6 36.9 5.08 5.9 4.26 4.52 3.78 3.7 3.47 3.13 3.28 2.7 3.12 2.38 3.02 2.1 2.94 1.86 2.9 1.67 2.87 1.5 2.87 1.35 2.88 1.2 2.92 1.1 2.96.96 3.02.84 2.26.53" stroke="#5e5e5e" stroke-width="2" fill="none"/><path d="M846.43 309.02l-.04 2-1.02-.02v-2z" fill="#5e5e5e"/><path d="M1016.78 430.38l-14.68 3.1 1-9.23z" stroke="#5e5e5e" stroke-width="2" fill="#5e5e5e"/><path d="M846.05 380.02l7.85.16 7.8.5 7 .72 6.36.94 5.9 1.12 5.54 1.3 5.32 1.5 5.2 1.68 5.23 1.94 5.45 2.3 6.08 2.86 7.93 4.17 29.57 16.5 6.07 2.85 5.46 2.3 5.23 1.94 5.2 1.68 5.32 1.48 5.54 1.3 5.9 1.13 6.36.93 5.17.54" stroke="#5e5e5e" stroke-width="2" fill="none"/><path d="M846.1 379.02l-.04 2-1-.02v-2z" fill="#5e5e5e"/><path d="M1016.77 430.58l-14.47 3.96.43-9.26z" stroke="#5e5e5e" stroke-width="2" fill="#5e5e5e"/><path d="M845.72 449.98l20.16-.4 15.96-1 13.27-1.38 12.48-1.84 16.17-3.12 33.38-6.87 12.47-1.84 13.27-1.4 15.96-.98 2.67-.06" stroke="#5e5e5e" stroke-width="2" fill="none"/><path d="M845.76 450.98l-1.05.02v-2l1.02-.02z" fill="#5e5e5e"/><path d="M1016.76 430.8l-14.17 4.9-.2-9.26z" stroke="#5e5e5e" stroke-width="2" fill="#5e5e5e"/><path d="M845.38 519.98l4.22-.1 4.84-.3 4.54-.47 4.27-.62 4.06-.77 3.9-.9 3.74-1.05 3.64-1.18 3.56-1.32 3.5-1.48 3.5-1.65 3.52-1.83 3.58-2.08 3.7-2.35 3.9-2.7 4.22-3.22 4.8-3.98 6.04-5.45 32.62-31.76 4.8-3.98 4.23-3.2 3.9-2.72 3.7-2.35 3.57-2.06 3.5-1.84 3.5-1.64 3.52-1.48 3.56-1.32 3.64-1.18 3.74-1.05 3.9-.9 4.05-.78.45-.07" stroke="#5e5e5e" stroke-width="2" fill="none"/><path d="M845.43 520.98l-1.05.02v-2l1-.02z" fill="#5e5e5e"/><path d="M1016.77 430.98l-13.85 5.74-.73-9.24z" stroke="#5e5e5e" stroke-width="2" fill="#5e5e5e"/><path d="M845.05 589.98l2-.04 2.85-.18 2.76-.3 2.68-.4 2.6-.48 2.55-.6 2.5-.7 2.46-.8 2.45-.9 2.44-1.03 2.43-1.15 2.45-1.28 2.47-1.42 2.5-1.6 2.56-1.78 2.63-2 2.7-2.25 2.86-2.57 3-2.93 3.2-3.4 3.46-4.03 3.84-4.85 4.4-6.1 5.4-8.13 7.9-13.1 27.63-48.32 5.38-8.14 4.4-6.06 3.85-4.85 3.47-4.03 3.2-3.4 3-2.95 2.83-2.56 2.73-2.25 2.63-2 2.55-1.77 2.5-1.6 2.48-1.42 2.45-1.27 2.43-1.15 2.44-1.02 2.45-.9 2.45-.8.68-.2" stroke="#5e5e5e" stroke-width="2" fill="none"/><path d="M845.1 590.98l-1.05.02v-2l1-.02z" fill="#5e5e5e"/><path d="M1016.8 431.17l-13.5 6.55-1.27-9.18z" stroke="#5e5e5e" stroke-width="2" fill="#5e5e5e"/><path d="M1081 430.73h59.5" stroke="#5e5e5e" stroke-width="2" fill="none"/><path d="M1081.03 431.73h-1.23l.2-1-.24-1h1.27z" fill="#5e5e5e"/><path d="M1155.76 430.73l-14.26 4.63v-9.27z" stroke="#5e5e5e" stroke-width="2" fill="#5e5e5e"/><path d="M1280 478.73c0 6.63-26.86 12-60 12s-60-5.37-60-12v-96c0-6.63 26.86-12 60-12s60 5.37 60 12z" stroke="#5e5e5e" stroke-width="2" fill="#fff"/><path d="M1280 382.73c0 6.63-26.86 12-60 12s-60-5.37-60-12" stroke="#5e5e5e" stroke-width="2" fill="none"/><g><use xlink:href="#o" transform="matrix(1,0,0,1,1165,399.727969348659) translate(7.5 47.34027777777778)"/></g><defs><path d="M205 0l-28-72H64L36 0H1l101-248h38L239 0h-34zm-38-99l-47-123c-12 45-31 82-46 123h93" id="p"/><path d="M27 0v-27h64v-190l-56 39v-29l58-41h29v221h61V0H27" id="q"/><g id="a"><use transform="matrix(0.06172839506172839,0,0,0.06172839506172839,0,0)" xlink:href="#p"/><use transform="matrix(0.06172839506172839,0,0,0.06172839506172839,14.814814814814813,0)" xlink:href="#q"/></g><path d="M101-251c82-7 93 87 43 132L82-64C71-53 59-42 53-27h129V0H18c2-99 128-94 128-182 0-28-16-43-45-43s-46 15-49 41l-32-3c6-41 34-60 81-64" id="r"/><g id="b"><use transform="matrix(0.06172839506172839,0,0,0.06172839506172839,0,0)" xlink:href="#p"/><use transform="matrix(0.06172839506172839,0,0,0.06172839506172839,14.814814814814813,0)" xlink:href="#r"/></g><path d="M126-127c33 6 58 20 58 59 0 88-139 92-164 29-3-8-5-16-6-25l32-3c6 27 21 44 54 44 32 0 52-15 52-46 0-38-36-46-79-43v-28c39 1 72-4 72-42 0-27-17-43-46-43-28 0-47 15-49 41l-32-3c6-42 35-63 81-64 48-1 79 21 79 65 0 36-21 52-52 59" id="s"/><g id="c"><use transform="matrix(0.06172839506172839,0,0,0.06172839506172839,0,0)" xlink:href="#p"/><use transform="matrix(0.06172839506172839,0,0,0.06172839506172839,14.814814814814813,0)" xlink:href="#s"/></g><path d="M155-56V0h-30v-56H8v-25l114-167h33v167h35v25h-35zm-30-156c-27 46-58 90-88 131h88v-131" id="t"/><g id="d"><use transform="matrix(0.06172839506172839,0,0,0.06172839506172839,0,0)" xlink:href="#p"/><use transform="matrix(0.06172839506172839,0,0,0.06172839506172839,14.814814814814813,0)" xlink:href="#t"/></g><path d="M54-142c48-35 137-8 131 61C196 18 31 33 14-55l32-4c7 23 22 37 52 37 35-1 51-22 54-58 4-55-73-65-99-34H22l8-134h141v27H59" id="u"/><g id="e"><use transform="matrix(0.06172839506172839,0,0,0.06172839506172839,0,0)" xlink:href="#p"/><use transform="matrix(0.06172839506172839,0,0,0.06172839506172839,14.814814814814813,0)" xlink:href="#u"/></g><path d="M84 4C-5 8 30-112 23-190h32v120c0 31 7 50 39 49 72-2 45-101 50-169h31l1 190h-30c-1-10 1-25-2-33-11 22-28 36-60 37" id="v"/><path d="M135-143c-3-34-86-38-87 0 15 53 115 12 119 90S17 21 10-45l28-5c4 36 97 45 98 0-10-56-113-15-118-90-4-57 82-63 122-42 12 7 21 19 24 35" id="w"/><path d="M100-194c63 0 86 42 84 106H49c0 40 14 67 53 68 26 1 43-12 49-29l28 8c-11 28-37 45-77 45C44 4 14-33 15-96c1-61 26-98 85-98zm52 81c6-60-76-77-97-28-3 7-6 17-6 28h103" id="x"/><path d="M114-163C36-179 61-72 57 0H25l-1-190h30c1 12-1 29 2 39 6-27 23-49 58-41v29" id="y"/><g id="f"><use transform="matrix(0.06172839506172839,0,0,0.06172839506172839,0,0)" xlink:href="#v"/><use transform="matrix(0.06172839506172839,0,0,0.06172839506172839,12.345679012345679,0)" xlink:href="#w"/><use transform="matrix(0.06172839506172839,0,0,0.06172839506172839,23.45679012345679,0)" xlink:href="#x"/><use transform="matrix(0.06172839506172839,0,0,0.06172839506172839,35.80246913580247,0)" xlink:href="#y"/></g><path d="M30 0v-248h33v221h125V0H30" id="z"/><path d="M100-194c62-1 85 37 85 99 1 63-27 99-86 99S16-35 15-95c0-66 28-99 85-99zM99-20c44 1 53-31 53-75 0-43-8-75-51-75s-53 32-53 75 10 74 51 75" id="A"/><path d="M141-36C126-15 110 5 73 4 37 3 15-17 15-53c-1-64 63-63 125-63 3-35-9-54-41-54-24 1-41 7-42 31l-33-3c5-37 33-52 76-52 45 0 72 20 72 64v82c-1 20 7 32 28 27v20c-31 9-61-2-59-35zM48-53c0 20 12 33 32 33 41-3 63-29 60-74-43 2-92-5-92 41" id="B"/><path d="M85-194c31 0 48 13 60 33l-1-100h32l1 261h-30c-2-10 0-23-3-31C134-8 116 4 85 4 32 4 16-35 15-94c0-66 23-100 70-100zm9 24c-40 0-46 34-46 75 0 40 6 74 45 74 42 0 51-32 51-76 0-42-9-74-50-73" id="C"/><g id="g"><use transform="matrix(0.05,0,0,0.05,0,0)" xlink:href="#z"/><use transform="matrix(0.05,0,0,0.05,10,0)" xlink:href="#A"/><use transform="matrix(0.05,0,0,0.05,20,0)" xlink:href="#B"/><use transform="matrix(0.05,0,0,0.05,30,0)" xlink:href="#C"/></g><path d="M160-131c35 5 61 23 61 61C221 17 115-2 30 0v-248c76 3 177-17 177 60 0 33-19 50-47 57zm-97-11c50-1 110 9 110-42 0-47-63-36-110-37v79zm0 115c55-2 124 14 124-45 0-56-70-42-124-44v89" id="D"/><path d="M24 0v-261h32V0H24" id="E"/><path d="M117-194c89-4 53 116 60 194h-32v-121c0-31-8-49-39-48C34-167 62-67 57 0H25l-1-190h30c1 10-1 24 2 32 11-22 29-35 61-36" id="F"/><path d="M96-169c-40 0-48 33-48 73s9 75 48 75c24 0 41-14 43-38l32 2c-6 37-31 61-74 61-59 0-76-41-82-99-10-93 101-131 147-64 4 7 5 14 7 22l-32 3c-4-21-16-35-41-35" id="G"/><g id="h"><use transform="matrix(0.05,0,0,0.05,0,0)" xlink:href="#D"/><use transform="matrix(0.05,0,0,0.05,12,0)" xlink:href="#B"/><use transform="matrix(0.05,0,0,0.05,22,0)" xlink:href="#E"/><use transform="matrix(0.05,0,0,0.05,25.950000000000003,0)" xlink:href="#B"/><use transform="matrix(0.05,0,0,0.05,35.95,0)" xlink:href="#F"/><use transform="matrix(0.05,0,0,0.05,45.95,0)" xlink:href="#G"/><use transform="matrix(0.05,0,0,0.05,54.95,0)" xlink:href="#x"/><use transform="matrix(0.05,0,0,0.05,64.95,0)" xlink:href="#y"/></g><path d="M212-179c-10-28-35-45-73-45-59 0-87 40-87 99 0 60 29 101 89 101 43 0 62-24 78-52l27 14C228-24 195 4 139 4 59 4 22-46 18-125c-6-104 99-153 187-111 19 9 31 26 39 46" id="H"/><g id="i"><use transform="matrix(0.04320987654320987,0,0,0.04320987654320987,0,0)" xlink:href="#H"/><use transform="matrix(0.04320987654320987,0,0,0.04320987654320987,11.191358024691356,0)" xlink:href="#q"/></g><g id="j"><use transform="matrix(0.04320987654320987,0,0,0.04320987654320987,0,0)" xlink:href="#H"/><use transform="matrix(0.04320987654320987,0,0,0.04320987654320987,11.191358024691356,0)" xlink:href="#r"/></g><g id="k"><use transform="matrix(0.04320987654320987,0,0,0.04320987654320987,0,0)" xlink:href="#H"/><use transform="matrix(0.04320987654320987,0,0,0.04320987654320987,11.191358024691356,0)" xlink:href="#s"/></g><g id="l"><use transform="matrix(0.04320987654320987,0,0,0.04320987654320987,0,0)" xlink:href="#H"/><use transform="matrix(0.04320987654320987,0,0,0.04320987654320987,11.191358024691356,0)" xlink:href="#t"/></g><g id="m"><use transform="matrix(0.04320987654320987,0,0,0.04320987654320987,0,0)" xlink:href="#H"/><use transform="matrix(0.04320987654320987,0,0,0.04320987654320987,11.191358024691356,0)" xlink:href="#u"/></g><path d="M209 0H11v-25l151-195H24v-28h176v25L50-27h159V0" id="I"/><path d="M143 0L79-87 56-68V0H24v-261h32v163l83-92h37l-77 82L181 0h-38" id="J"/><path d="M115-194c55 1 70 41 70 98S169 2 115 4C84 4 66-9 55-30l1 105H24l-1-265h31l2 30c10-21 28-34 59-34zm-8 174c40 0 45-34 45-75s-6-73-45-74c-42 0-51 32-51 76 0 43 10 73 51 73" id="K"/><g id="n"><use transform="matrix(0.06172839506172839,0,0,0.06172839506172839,0,0)" xlink:href="#I"/><use transform="matrix(0.06172839506172839,0,0,0.06172839506172839,13.518518518518517,0)" xlink:href="#A"/><use transform="matrix(0.06172839506172839,0,0,0.06172839506172839,25.864197530864196,0)" xlink:href="#A"/><use transform="matrix(0.06172839506172839,0,0,0.06172839506172839,38.20987654320987,0)" xlink:href="#J"/><use transform="matrix(0.06172839506172839,0,0,0.06172839506172839,49.32098765432099,0)" xlink:href="#x"/><use transform="matrix(0.06172839506172839,0,0,0.06172839506172839,61.666666666666664,0)" xlink:href="#x"/><use transform="matrix(0.06172839506172839,0,0,0.06172839506172839,74.01234567901234,0)" xlink:href="#K"/><use transform="matrix(0.06172839506172839,0,0,0.06172839506172839,86.35802469135803,0)" xlink:href="#x"/><use transform="matrix(0.06172839506172839,0,0,0.06172839506172839,98.70370370370371,0)" xlink:href="#y"/></g><path d="M30-248c118-7 216 8 213 122C240-48 200 0 122 0H30v-248zM63-27c89 8 146-16 146-99s-60-101-146-95v194" id="L"/><path d="M59-47c-2 24 18 29 38 22v24C64 9 27 4 27-40v-127H5v-23h24l9-43h21v43h35v23H59v120" id="M"/><path d="M115-194c53 0 69 39 70 98 0 66-23 100-70 100C84 3 66-7 56-30L54 0H23l1-261h32v101c10-23 28-34 59-34zm-8 174c40 0 45-34 45-75 0-40-5-75-45-74-42 0-51 32-51 76 0 43 10 73 51 73" id="N"/><g id="o"><use transform="matrix(0.06172839506172839,0,0,0.06172839506172839,0,0)" xlink:href="#L"/><use transform="matrix(0.06172839506172839,0,0,0.06172839506172839,15.987654320987653,0)" xlink:href="#B"/><use transform="matrix(0.06172839506172839,0,0,0.06172839506172839,28.333333333333332,0)" xlink:href="#M"/><use transform="matrix(0.06172839506172839,0,0,0.06172839506172839,34.50617283950617,0)" xlink:href="#B"/><use transform="matrix(0.06172839506172839,0,0,0.06172839506172839,46.85185185185185,0)" xlink:href="#N"/><use transform="matrix(0.06172839506172839,0,0,0.06172839506172839,59.197530864197525,0)" xlink:href="#B"/><use transform="matrix(0.06172839506172839,0,0,0.06172839506172839,71.5432098765432,0)" xlink:href="#w"/><use transform="matrix(0.06172839506172839,0,0,0.06172839506172839,82.65432098765432,0)" xlink:href="#x"/></g></defs></g></svg>